<?xml version="1.0" encoding="utf-8"?>
<!-- Generator: Adobe Illustrator 17.0.0, SVG Export Plug-In . SVG Version: 6.00 Build 0)  -->
<!DOCTYPE svg PUBLIC "-//W3C//DTD SVG 1.1//EN" "http://www.w3.org/Graphics/SVG/1.1/DTD/svg11.dtd">
<svg version="1.1" id="Layer_1" xmlns="http://www.w3.org/2000/svg" xmlns:xlink="http://www.w3.org/1999/xlink" x="0px" y="0px"
	 width="1000px" height="1000px" viewBox="0 0 1000 1000" enable-background="new 0 0 1000 1000" xml:space="preserve">
<g>
	<polygon fill="#395BA2" points="383.709,367.4 388.391,372.073 392.936,367.264 428.218,329.845 432.627,325.164 423.273,316.336 
		418.864,321.018 388.118,353.636 378.9,344.409 374.345,339.864 365.264,348.955 369.809,353.5 	"/>
	<polygon fill="#395BA2" points="383.709,569.509 388.391,574.182 392.936,569.373 428.218,531.945 432.627,527.264 
		423.273,518.445 418.864,523.127 388.118,555.736 378.9,546.518 374.345,541.973 365.264,551.055 369.809,555.6 	"/>
	<polygon fill="#395BA2" points="383.709,687.4 388.391,692.073 392.936,687.264 428.218,649.845 432.627,645.164 423.273,636.336 
		418.864,641.018 388.118,673.636 378.9,664.409 374.345,659.864 365.264,668.955 369.809,673.5 	"/>
	<rect x="466.318" y="323.155" fill="#395BA2" width="168.418" height="8.418"/>
	<rect x="466.318" y="356.845" fill="#395BA2" width="33.682" height="8.418"/>
	<rect x="466.318" y="424.209" fill="#395BA2" width="168.418" height="8.418"/>
	<rect x="466.318" y="457.891" fill="#395BA2" width="134.736" height="8.418"/>
	<rect x="466.318" y="525.264" fill="#395BA2" width="168.418" height="8.418"/>
	<rect x="466.318" y="558.945" fill="#395BA2" width="67.373" height="8.418"/>
	<rect x="466.318" y="626.318" fill="#395BA2" width="168.418" height="8.418"/>
	<rect x="466.318" y="660" fill="#395BA2" width="134.736" height="8.418"/>
	<rect x="466.318" y="693.682" fill="#395BA2" width="168.418" height="8.418"/>
	<polygon fill="#395BA2" points="415.364,418.9 398.945,436.255 382.536,418.9 373.682,427.245 390.555,445.127 373.682,462.964 
		382.345,471.627 398.945,454.027 415.545,471.627 424.209,462.964 407.345,445.127 424.209,427.245 	"/>
	<circle fill="#395BA2" cx="500" cy="155.036" r="16.845"/>
	<path fill="#395BA2" d="M761.055,158.945h-123.4l-1.6-3.491c-1.373-3.009-4.364-4.927-7.664-4.927h-70.118
		c-4.164,0-7.682-3.045-8.273-7.164C546.545,118.845,525.473,100,500,100c-25.473,0-46.545,18.845-50.018,43.364
		c-0.591,4.118-4.109,7.164-8.273,7.164h-71.836c-3.364,0-6.4,2-7.727,5.082l-1.436,3.345H238.945c-4.645,0-8.418,3.773-8.418,8.418
		v724.209c0,4.645,3.773,8.418,8.418,8.418h522.109c4.645,0,8.418-3.773,8.418-8.418V167.373
		C769.473,162.718,765.7,158.945,761.055,158.945z M375.4,167.373h66.309c12.464,0,23.191-9.309,24.945-21.645
		c2.336-16.473,16.673-28.882,33.345-28.882s31.009,12.409,33.345,28.882c1.755,12.336,12.473,21.645,24.945,21.645h64.7
		l19.227,42.109H357.2L375.4,167.373z M655.318,226.318h46.791v606.318H297.891V226.318h46.5H655.318z M752.627,883.155H247.373
		V175.791h106.045l-14.564,33.682h-40.964h-16.836v16.845v606.318v16.845H297.9h404.209h16.845v-16.845V226.318v-16.845h-16.845
		h-41.373l-15.382-33.682h107.282v707.364H752.627z"/>
</g>
</svg>
