<?xml version="1.0" encoding="utf-8"?>
<!-- Generator: Adobe Illustrator 17.0.0, SVG Export Plug-In . SVG Version: 6.00 Build 0)  -->
<!DOCTYPE svg PUBLIC "-//W3C//DTD SVG 1.1//EN" "http://www.w3.org/Graphics/SVG/1.1/DTD/svg11.dtd">
<svg version="1.1" id="Layer_1" xmlns="http://www.w3.org/2000/svg" xmlns:xlink="http://www.w3.org/1999/xlink" x="0px" y="0px"
	 width="1000px" height="1000px" viewBox="0 0 1000 1000" enable-background="new 0 0 1000 1000" xml:space="preserve">
<path fill="#395BA2" d="M-665.723,386.875c-64.098-0.285-128.199-0.192-192.298-0.046c-26.492,0.06-42.906,16.903-42.909,43.368
	c-0.009,86.299,0.169,172.599-0.207,258.896c-0.058,13.24,4.45,23.595,13.386,32.641c8.363,11.691,18.368,22,28.883,31.613
	c9.248,8.455,15.948,17.083,13.239,30.402c-0.285,1.399,0.766,3.069,1.196,4.614c0.374,5.227,4.22,6.838,8.425,7.405
	c6.344,0.857,10.073-2.997,12.541-8.839c11.081,9.016,22.138,16.71,36.921,14.753c2.69-0.356,4.517,0.875,3.842,3.697
	c-0.66,2.757,2.43,6.882-2.73,8.139c-2.591,0.631-5.545,0.393-7.354,2.971c-5.768,3.514-7.356,8.69-5.576,14.926
	c1.695,5.937,5.735,9.048,11.994,9.77c6.647,0.767,15.76-3.566,19.329,2.359c3.055,5.071,0.617,13.45,0.618,20.365
	c0,0.272,0.1,0.544,0.154,0.821c-0.456,2.692-1.038,5.375-1.349,8.089c-2.852,24.885-11.033,33.819-35.487,37.844
	c-19.121,3.147-38.55,2.6-57.801,4.258c-25.396-0.465-50.812-0.459-76.184-1.516c-31.122-1.296-62.473,0.706-93.276-5.795
	c-0.016,0.056-0.026,0.112-0.041,0.168c-0.742-0.278-1.484-0.555-2.228-0.833c-4.751-1.864-9.546-3.625-14.228-5.646
	c-1.721-0.743-4.516-1.412-2.324-4.425c11.393-3.093,21.027-9.376,29.837-16.933c16.022-13.742,25.123-30.436,21.337-52.319
	c-2.764-20.891-14.001-34.833-31.308-38.845c-10.831-2.292-20.872,0.205-30.405,5.246c-26.336,13.927-39.85,42.976-33.949,72.768
	c-0.076,3.969,1.22,7.656,2.64,11.237c2.324,5.862-0.099,6.373-5.187,5.507c-10.594-1.803-19.839-6.714-29.076-11.747
	c-1.06-0.893-2.12-1.786-3.181-2.677c-0.006,0.036-0.002,0.058-0.008,0.093c-0.577-0.45-1.154-0.9-1.731-1.349
	c0.002,0,0.003,0,0.005,0c-0.739-0.691-1.478-1.382-2.219-2.075c0.015,0.169,0.037,0.331,0.067,0.484
	c-0.03-0.153-0.052-0.315-0.067-0.484c-0.05-0.662-0.409-1.002-1.075-1.019c-0.781-1.66-1.948-2.921-3.676-3.6
	c-0.462-0.566-0.924-1.133-1.385-1.697c0.042,0.006,0.078,0.017,0.12,0.022c-1.918-2.616-3.836-5.231-5.754-7.846
	c-2.116-4.012-4.233-8.024-6.35-12.035c0.001-0.001,0.043-0.007,0.043-0.007c-3.781-12.204-7.027-24.491-7.023-37.425
	c0.026-84.404,0.043-168.809-0.008-253.213c-0.023-37.473-0.213-74.946-0.327-112.417c0.115-5.544,0.319-11.084,0.326-16.625
	c0.02-14.528-0.015-14.528,14.38-15.007c8.484-0.282,13.545-4.529,14.307-12.007c0.84-8.25-3.009-13.272-11.631-15.477
	c-1.757-0.449-3.938,0.449-5.256-1.641c-2.328-3.693,0.334-15.202,4.288-17.702c19.235-12.158,37.976-25.027,55.678-39.335
	c30.513-24.663,59.066-51.214,78.868-85.7c17.395-30.293,24.178-61.936,9.44-95.332c-6.978-15.81-16.564-29.93-31.651-39.426
	c-6.538-8.811-15.872-13.683-25.52-18.109c-3.813,2.231-7.627,4.462-11.441,6.694c12.858,6.098,24.329,14.267,35.094,23.49
	c0.254-1.249,0.179-2.548,0.067-3.853c0.113,1.305,0.188,2.605-0.066,3.853c11.401,12.945,22.165,26.264,26.611,43.484
	c6.582,25.491,0.427,48.92-11.849,71.175c-17.472,31.676-42.995,56.325-70.496,79.077c-18.362,15.192-37.959,28.713-58.256,41.873
	c-3.029-7.741-0.189-11.945,5.832-16.087c31.818-21.886,61.594-46.244,86.955-75.551c13.427-15.516,25.463-32.038,32.662-51.573
	c9.143-24.811,9.272-49.092-7.235-70.829c-17.54-23.097-39.032-40.505-70.495-38.695c-15.426,0.887-28.855,7.051-40.56,17.055
	c-0.515,0.43-1.03,0.861-1.545,1.291c0-0.001,0-0.001,0-0.002c0,0,0,0,0,0v0l0,0c-11.124,6.83-18.527,17.503-27.305,26.837
	c-3.093-3.06-5.985-5.92-8.876-8.78l0-0.001v0l0,0c0.002,0.009,0.003,0.019,0.005,0.028c-0.521-0.551-1.041-1.103-1.561-1.654
	c0.016-0.002,0.029-0.001,0.046-0.004c0,0,0,0,0,0c0,0,0.001,0,0.001,0l-0.001-0.001c-0.556-1.706-1.69-2.84-3.361-3.441
	c-0.624-1.671-1.784-2.79-3.496-3.339c-0.002,0.02-0.001,0.036-0.003,0.055c-0.583-0.555-1.166-1.109-1.748-1.663
	c0.002,0.011,0.007,0.018,0.009,0.029c-0.595-0.527-1.19-1.054-1.785-1.581l0.188,0.186c-0.591-0.56-1.181-1.12-1.772-1.679
	c0.011,0,0.022,0.001,0.033,0.001v0c0,0,0,0,0,0l-0.002-0.001c-2.923-3.287-6.123-6.207-10.333-7.786
	c-0.41-0.335-0.878-0.473-1.404-0.413c-0.559-0.598-1.117-1.196-1.676-1.794c0.007,0,0.013,0.001,0.02,0.001
	c0,0-0.001,0-0.001-0.001c0,0,0.001,0,0.001,0l-0.066-0.049c0.006,0.007,0.012,0.013,0.018,0.019
	c-1.057-0.673-2.115-1.347-3.172-2.021c-23.134-14.929-47.106-17.462-71.163-3.02c-18.93,11.364-33.999,26.497-39.598,48.958
	c0,0.002,0,0.004,0.001,0.005c-1.539,1.233-1.424,2.917-1.26,4.614c-0.287,0.915-0.574,1.829-0.861,2.744
	c2.448,1.721,2.866,3.916,2.794,6.201c0.072-2.285-0.346-4.479-2.794-6.199c-1.815,10.889-1.735,21.669,1.828,32.25
	c2.407,11.53,6.924,22.144,13.782,31.742c0.139,0.815,0.037,1.789,0.453,2.423c18.239,27.823,40.664,51.807,66.654,72.509
	c12.93,12.184,27.118,22.822,41.899,32.554c6.802,4.479,8.041,9.555,5.833,17.23c-21.14-12.967-39.731-28.646-58.996-43.396
	c-1.333,0.951-3.022,1.447-4.574,2.119c-0.443,0.192-0.875,0.398-1.284,0.634c0.409-0.235,0.841-0.442,1.284-0.634
	c1.552-0.672,3.241-1.168,4.574-2.119c-7.861-7.224-15.721-14.448-23.582-21.672c0,0,0,0,0,0l0-0.001
	c-0.012,0.023-0.018,0.049-0.03,0.072c0,0,0,0,0,0c-1.301,2.546,0.46,6.045-0.357,8.741c-0.15,0.495-0.387,0.963-0.746,1.392
	c0.359-0.43,0.596-0.897,0.746-1.392c0.817-2.697-0.944-6.196,0.357-8.742c-0.602-0.633-1.204-1.265-1.805-1.898
	c-10.439-12.138-20.878-24.276-31.317-36.414h0c-0.54-0.738-1.08-1.477-1.62-2.216l0.102-0.177
	c-3.29-5.179-6.58-10.357-9.869-15.536c0,0,0-0.001,0-0.001c-6.432-12.357-11.529-25.239-15.214-38.676l0,0
	c-0.432-3.976-0.863-7.952-1.295-11.928l0,0c0,0.004,0.248-0.522,0.248-0.522l-0.341-0.471c-0.007-1.208-0.014-2.416-0.021-3.624
	c0.405-16.28,5.173-31.244,13.613-45.1c-1.431-2.784-3.506-3.379-5.745-3.415c2.24,0.036,4.315,0.63,5.746,3.414
	c10.901-15.055,24.47-27.133,40.581-36.371c28.678-12.529,55.479-7.651,80.976,8.827c8.896,5.748,17.171,12.369,24.253,20.219
	c3.887,4.308,5.97,3.542,9.584-0.332c16.779-17.984,36.344-31.141,61.448-34.619c12.205-1.691,23.666,1.324,35.238,4.163
	c3.815-2.231,7.629-4.462,11.442-6.693c-13.989-7.777-29.062-10.442-44.869-9.239c-24.609,1.874-45.005,13.051-62.798,29.393
	c-4.068,3.736-6.447,4.213-10.776,0.241c-13.795-12.657-29.522-22.364-47.787-27.15c-24.592-6.445-48.122-4.329-69.785,10.085
	c-16.223,9.341-29.318,21.835-38.551,38.225c-9.123,13.054-13.724,27.53-13.672,43.469l0,0c-0.875,2.134-0.762,4.287-0.115,6.449
	c-0.952,3.042-0.491,6.014,0.441,8.974c-0.202,3.285-0.229,6.55,1.679,9.473c2.359,16.497,9.242,31.144,18.346,44.883
	c0.426,2.06,1.406,3.758,3.204,4.929c11.932,20.393,27.868,37.415,45.021,53.41c5.687,6.09,11.832,11.677,18.445,16.747
	c1.201,1.139,2.349,2.34,3.609,3.409c19.064,16.17,38.823,31.464,60.016,44.715c6.726,4.206,4.865,9.792,5.029,15.296
	c0.165,5.583-4.85,3.291-7.465,4.255c-6.208,2.288-9.601,6.22-9.742,12.908c-0.21,9.958,5.168,14.793,17.897,14.066
	c8.22-0.47,10.556,1.577,10.515,10.216c-0.03,6.213-0.04,12.426-0.064,18.639c-0.009,0.317-0.012,0.634-0.003,0.951
	c-0.287,74.259-0.212,148.52-0.154,222.781c0.037,47.733,0.257,95.466,0.395,143.2c-0.108,16.914,3.397,33.002,11.015,48.148
	l0.016-0.023c0.225,1.792,0.653,3.485,2.241,4.615c0,0,0.044,0.109,0.044,0.109c0.38,0.647,0.761,1.294,1.141,1.941
	c-0.031-0.014-0.055-0.033-0.087-0.047c0.661,2.5,1.761,4.729,3.894,6.324c0-0.001,0.067,0.127,0.067,0.127
	c0.22,1.755,1.236,2.917,2.68,3.761c0.321,1.299,0.906,2.396,2.264,2.905c2.436,4.232,5.84,7.515,9.94,10.114
	c-0.001-0.004-0.003-0.008-0.004-0.012c0.557,0.515,1.114,1.03,1.672,1.546c-0.004,0-0.006,0-0.01,0
	c2.095,2.623,4.666,4.587,7.842,5.712c2.207,1.683,3.56,4.821,7.141,4.164c13.365,8.791,28.729,10.996,44.062,13.047
	c3.748,0.501,6.777,1.415,9.687,3.913c11.436,9.812,24.877,15.336,39.659,17.779c8.852,2.49,17.943,3.363,27.073,3.861
	c47.373,2.585,94.788,1.064,142.184,1.42c22.99,0.172,45.976-0.092,68.904-2.096c1.234-0.071,2.469-0.142,3.703-0.213
	c2.904-0.642,6.094-0.234,8.599-2.346c12.19-2.676,19.33-11.223,24.538-21.669c7.991-16.027,9.748-33.485,9.528-50.944
	c-0.117-9.214,1.875-12.791,11.597-11.72c7.849,0.865,12.202-4.448,13.499-11.833c1.192-6.786-3.075-13.722-10.361-14.669
	c-6.686-0.869-6.221-4.61-6.041-9.052c0.265-6.53,5.338-3.529,8.11-3.557c10.838-0.113,21.719,0.587,30.911-6.809
	c2.482-1.997,4.272-3.23,7.99-0.762c5.935,3.94,11.634,1.24,15.039-5.681c1.741-1.518,1.307-3.651,1.027-5.392
	c-1.21-7.54,2.098-12.764,7.216-18.022c9.178-9.428,18.106-19.159,25.766-29.932c5.192-4.666,8.883-10.543,12.764-16.217
	c4.514-6.599,9.566-13.229,9.622-21.666c0.135-20.195-0.123-40.392-0.223-60.588c0.002-27.262,0.004-54.524,0.006-81.785
	c0.118-40.782-0.457-81.581,0.599-122.338C-619.801,405.285-635.929,387.008-665.723,386.875z M-1031.096,104.166
	c0.022,0.518,0.065,1.04,0.111,1.563C-1031.032,105.206-1031.075,104.685-1031.096,104.166z M-1175.203,133.089
	c0.001,0.293-0.001,0.586-0.005,0.88C-1175.204,133.675-1175.202,133.382-1175.203,133.089z M-1174.207,289.827
	c0.015-6.369-0.067-12.74,0.048-19.108c-0.115,6.367-0.032,12.738-0.04,19.108c-0.008,5.816-0.062,11.632,0.021,17.447
	C-1174.261,301.459-1174.207,295.643-1174.207,289.827z M-1183.917,121.421c-0.191-0.035-0.385-0.069-0.545-0.137
	C-1184.301,121.352-1184.108,121.385-1183.917,121.421C-1183.917,121.42-1183.917,121.42-1183.917,121.421z M-1012.591,829.519
	c-0.015,0.717-0.074,1.433-0.063,2.073C-1012.665,830.952-1012.605,830.236-1012.591,829.519c0.025-1.195-0.074-2.391-0.827-3.231
	C-1012.664,827.128-1012.566,828.324-1012.591,829.519z M-1014.436,824.356c0.012-0.324-0.012-0.635-0.078-0.932
	C-1014.447,823.72-1014.424,824.032-1014.436,824.356z M-1014.615,823.102c-0.025-0.068-0.042-0.139-0.073-0.205
	C-1014.656,822.963-1014.64,823.034-1014.615,823.102z M-1080.915,872.239c0.359,0.271,0.717,0.545,1.075,0.818
	c0.355,0.27,0.712,0.534,1.071,0.792c-0.36-0.258-0.717-0.522-1.071-0.792C-1080.198,872.784-1080.556,872.51-1080.915,872.239z
	 M-1065.983,883.499c-1.429-1.165-2.857-2.33-4.286-3.495c-0.485-0.141-0.874-0.332-1.18-0.568c0.305,0.235,0.694,0.427,1.178,0.567
	c-0.657-1.242-1.314-2.483-1.97-3.723c0,0,0.105-0.068,0.107-0.068c0,0,0.001,0,0.001,0c-6.767-18.352-4.695-35.884,4.89-52.72
	c3.871-3.457,7.44-7.347,11.665-10.296c16.666-11.631,29.389-8.777,39.736,8.557c-0.069,1.398-0.065,2.771,1.282,3.677
	c0,0-0.109,0.043-0.109,0.043c0,0,0,0-0.001,0c1.151,26.018-15.452,46.619-45.058,55.924
	C-1061.825,882.056-1063.897,882.796-1065.983,883.499c1.146,1.608,3.161,1.184,4.61,1.373
	C-1062.822,884.683-1064.838,885.107-1065.983,883.499z M-892.349,694.769c-0.056-0.223-0.1-0.45-0.132-0.682
	C-892.448,694.319-892.404,694.546-892.349,694.769z M-892.491,690.831c-0.038,0.613-0.077,1.234-0.079,1.845
	C-892.568,692.065-892.529,691.444-892.491,690.831z M-886.573,712.221c0.106,0.477,0.207,0.954,0.292,1.43
	C-886.366,713.174-886.467,712.698-886.573,712.221z M-788.228,790.092c-10.568,1.137-17.602-5.483-25.535-10.3
	c-0.685-0.508-1.37-1.016-2.055-1.524c0.022-0.001,0.04-0.007,0.062-0.008c-6.636-5.118-10.607-11.265-7.497-20.605
	c7.56,4.445,12.682,11.943,20.421,15.919v0l0,0c0.003-0.016,0.006-0.033,0.009-0.049c0,0,0,0,0,0
	c0.118-0.725,0.273-1.464,0.512-2.153c0.163-0.469,0.364-0.916,0.618-1.318c-0.254,0.402-0.455,0.848-0.618,1.318
	c-0.239,0.689-0.394,1.428-0.512,2.153c0.677,0.544,1.354,1.089,2.031,1.633c3.346,4.029,7.812,4.871,12.706,4.427
	c3.553-0.323,5.606,0.404,5.608,4.819C-782.476,788.825-784.038,789.642-788.228,790.092z M-718.116,789.812
	c-5.52,0.433-11.113-0.127-16.648,0.19c-4.707,0.27-4.482-2.52-4.619-5.79c-0.152-3.629,1.17-5.328,4.768-4.679
	c15.233,2.747,26.178-4.383,36.092-16.905C-696.616,777.799-705.085,788.79-718.116,789.812z M-680.627,754.609
	c0.472-0.711,0.871-1.455,1.231-2.216C-679.756,753.154-680.154,753.898-680.627,754.609z M-678.455,750.066
	c1.251-3.675,1.703-7.715,2.474-11.655c0,0,0,0,0,0C-676.752,742.351-677.204,746.391-678.455,750.066z M-632.519,558.416
	c-0.646,24.984-0.751,49.968,0.048,74.951c-0.167,19.019-0.566,38.04-0.38,57.055c0.068,6.974-1.896,12.859-5.492,18.636
	c-7.6,12.207-17.768,22.421-26.036,34.097c-3.42,3.499-6.84,6.998-11.6,11.868c0-6.56,0-11.586,0-16.612
	c10.712-10.82,19.861-22.9,28.61-35.315c5.123-7.27,3.273-15.335,2.982-23.246l0,0c0-37.702,0.001-75.405,0.001-113.109
	c0.142-40.751,0.285-81.502,0.424-122.252c0.018-5.269,0.074-10.538,0.003-15.806c-0.171-12.664-6.803-19.495-19.52-19.594
	c-20.242-0.157-40.487-0.035-60.731-0.031c-44.37,0.01-88.739-0.031-133.109,0.064c-12.663,0.027-19.166,5.381-20.009,15.884
	c1.207,4.168,1.587,8.37,1.632,12.585c-0.045-4.215-0.426-8.416-1.632-12.584c-0.012,21.738-0.024,43.476-0.036,65.213
	c-0.114,21.323-0.171,42.646-0.394,63.967c-0.04,3.84,1.123,5.48,5.21,5.364c12.437-0.353,24.882-0.414,37.324-0.589
	c-2.08-1.088-2.357-2.866-2.385-4.844c0.028,1.978,0.306,3.757,2.393,4.844c15.354,0.761,30.7,1.013,46.044-0.085
	c7.099,3.301,4.478,6.597-0.005,9.892c-0.563,8.555-1.126,17.11-1.7,25.842c0.574-8.732,1.138-17.287,1.7-25.844
	c-15.05-2.809-30.178-1.114-45.283-0.795c-12.724-0.172-25.451-0.231-38.17-0.581c-4.119-0.113-4.965,1.619-5.175,5.387
	c-1.305,23.343-1.394,23.317,22.099,23.338c21.341,0.019,42.682,0.064,64.023,0.171c2.781,0.014,6.554-1.263,6.475,3.842
	c-0.08,5.138-3.901,3.624-6.637,3.662c-25.185,0.345-50.386-0.681-75.557,0.894c2.662,5.175,7.414,7.441,12.194,9.583
	c-4.781-2.142-9.533-4.408-12.196-9.583c-10.293-1.473-10.297-1.473-10.308,8.362c-0.006,4.989,0.021,9.979,0.003,14.968
	c-0.009,2.635,0.186,5.465,3.623,5.304c6.822-0.319,13.754,1.336,20.468-1.029l0.66,0.213c0,0,0.487-0.445,0.495-0.446
	c1.054-0.052,2.116-0.105,3.178-0.157c10.465,1.481,20.986,0.493,31.479,0.689c7.48,0.14,14.979-0.243,22.442,0.14
	c3.617,0.185,9.663-2,9.858,3.994c0.232,7.13-6.274,3.7-9.54,3.74c-24.939,0.308-49.885,0.297-74.824-0.005
	c-5.868-0.071-8.279,0.994-7.998,7.651c0.596,14.109,0.165,28.261,0.178,42.395c0.003,3.292-0.514,6.707,1.921,9.516h0
	c6.336,10.061,14.344,18.82,22.876,26.903c6.578,6.232,10.46,12.296,6.007,21.709c-14.578-14.134-28.701-28.685-40.384-45.451v0
	l0.002-0.002c0,0,0.001,0,0.001,0.001c0,0,0-0.001,0-0.001l0,0c0,0-0.001,0-0.001,0c-0.499-1.251-0.998-2.505-1.497-3.758
	c0.297-0.565,0.157-0.983-0.419-1.256c0.025-92.044,0.049-184.091,0.074-276.137c7.143-18.389,14.874-23.562,35.174-23.561
	c63.021,0.001,126.042-0.016,189.063,0.003c20.278,0.006,31.874,11.541,31.891,31.726c0.034,39.423,0.005,78.846,0.038,118.269
	C-632.945,551.783-632.669,555.099-632.519,558.416c2.58-0.052,4.978-0.704,7.298-1.616
	C-627.541,557.712-629.939,558.364-632.519,558.416z"/>
<path fill="#395BA2" d="M417.988,308.446h-55.552c-4.842,0-8.771,3.93-8.771,8.771c0,4.842,3.93,8.771,8.771,8.771h55.552
	c4.842,0,8.771-3.93,8.771-8.771C426.76,312.376,422.83,308.446,417.988,308.446z M417.988,367.705h-55.552
	c-4.842,0-8.771,3.93-8.771,8.771c0,4.842,3.93,8.771,8.771,8.771h55.552c4.842,0,8.771-3.93,8.771-8.771
	C426.76,371.635,422.83,367.705,417.988,367.705z M417.988,249.188h-55.552c-4.842,0-8.771,3.93-8.771,8.771
	c0,4.842,3.93,8.771,8.771,8.771h55.552c4.842,0,8.771-3.93,8.771-8.771C426.76,253.117,422.83,249.188,417.988,249.188z
	 M652.206,218.383c-14.338-15.625-34.734-24.583-55.938-24.583c-4.842,0-8.771,3.93-8.771,8.771c0,4.842,3.93,8.771,8.771,8.771
	c16.315,0,31.986,6.888,43.026,18.911c3.544,3.848,6.561,8.151,8.947,12.818c4.269,8.292,6.432,17.274,6.432,26.653
	c0,4.842,3.93,8.771,8.771,8.771c4.842,0,8.771-3.93,8.771-8.771c0-12.034-2.889-24.033-8.374-34.676
	C660.72,229.002,656.802,223.4,652.206,218.383z M663.433,294.81c-4.842,0-8.771,3.93-8.771,8.771V344.9
	c0,4.842,3.93,8.771,8.771,8.771s8.771-3.93,8.771-8.771v-41.319C672.204,298.74,668.275,294.81,663.433,294.81z M500.018,127.769
	c-17.601,0-31.916,14.326-31.916,31.916c0,17.613,14.326,31.928,31.916,31.928s31.916-14.326,31.916-31.928
	C531.933,142.096,517.619,127.769,500.018,127.769z M500.018,174.07c-7.929,0-14.373-6.467-14.373-14.385
	c0-7.918,6.456-14.373,14.373-14.373c7.918,0,14.373,6.444,14.373,14.373C514.391,167.614,507.947,174.07,500.018,174.07z
	 M604.864,150.914l-34.243-0.012c-4.339-35.097-34.348-62.358-70.591-62.358c-36.278,0-66.288,27.261-70.627,62.37H395.16
	c-59.68,0-108.226,48.546-108.226,108.226v337.906c0,57.937,45.798,105.244,103.069,107.957l20.993,35.448
	c1.591,2.678,4.444,4.304,7.555,4.304h55.879c1.789,39.494,14.794,73.199,19.028,83.082c6.467,15.087,16.876,45.26,18.338,83.62
	h17.683c-1.462-41.564-12.9-74.205-19.893-90.532c-7.894-18.408-16.268-47.283-17.741-76.182h17.566
	c1.462,26.244,9.099,52.452,16.303,69.258c7.532,17.578,19.846,52.768,21.308,97.455h17.391
	c-1.497-47.763-14.525-85.561-22.583-104.355c-6.514-15.204-13.379-38.758-14.829-62.358h54.452c3.099,0,5.976-1.637,7.555-4.304
	l20.993-35.448c57.271-2.713,103.069-50.02,103.069-107.957V259.14C713.09,199.472,664.532,150.914,604.864,150.914z
	 M362.437,622.284c-4.842,0-8.771-3.93-8.771-8.771c0-4.842,3.93-8.771,8.771-8.771h55.552c4.842,0,8.771,3.93,8.771,8.771
	c0,4.842-3.93,8.771-8.771,8.771H362.437z M362.437,486.223h55.552c4.842,0,8.771,3.93,8.771,8.771c0,4.842-3.93,8.771-8.771,8.771
	h-55.552c-4.842,0-8.771-3.93-8.771-8.771C353.665,490.153,357.595,486.223,362.437,486.223z M353.665,435.736
	c0-4.842,3.93-8.771,8.771-8.771h55.552c4.842,0,8.771,3.93,8.771,8.771c0,4.842-3.93,8.771-8.771,8.771h-55.552
	C357.595,444.507,353.665,440.577,353.665,435.736z M362.437,545.482h55.552c4.842,0,8.771,3.93,8.771,8.771
	s-3.93,8.771-8.771,8.771h-55.552c-4.842,0-8.771-3.93-8.771-8.771S357.595,545.482,362.437,545.482z M576.468,727.224H423.555
	l-12.993-21.952h178.923L576.468,727.224z M695.548,404.872H304.476V259.14c0-49.996,40.687-90.684,90.684-90.684l42.477-0.012
	c4.842,0,8.771-3.93,8.771-8.771c0-29.542,24.057-53.587,53.622-53.587c29.542,0,53.587,24.045,53.587,53.599
	c0,4.842,3.93,8.771,8.771,8.771h42.477c49.996,0,90.684,40.687,90.684,90.684V404.872z"/>
</svg>
