<?xml version="1.0" encoding="utf-8"?>
<!-- Generator: Adobe Illustrator 17.0.0, SVG Export Plug-In . SVG Version: 6.00 Build 0)  -->
<!DOCTYPE svg PUBLIC "-//W3C//DTD SVG 1.1//EN" "http://www.w3.org/Graphics/SVG/1.1/DTD/svg11.dtd">
<svg version="1.1" id="Layer_1" xmlns="http://www.w3.org/2000/svg" xmlns:xlink="http://www.w3.org/1999/xlink" x="0px" y="0px"
	 width="1000px" height="1000px" viewBox="0 0 1000 1000" enable-background="new 0 0 1000 1000" xml:space="preserve">
<g>
	<path fill="#395BA2" d="M734.482,771.588c17.179,34.484,34.346,68.974,51.544,103.449c4.309,8.637,7.965,17.091,2.707,26.902
		c-10.127,18.896-32.802,20.367-45.285,2.964c-13.05-18.195-20.182-39.352-29.753-59.232c-13.172-27.359-31.065-52.326-40.625-81.53
		c-3.06-9.348-8.032-14.02-20.757-10.693c-56.102,14.667-110.868,33.519-166.222,50.517c-6.999,2.149-14.548,3.402-21.847,3.421
		c-6.968,0.018-8.134,2.671-7.926,8.752c0.41,11.935-0.141,23.901,0.205,35.839c0.17,5.867-1.733,7.801-7.712,7.747
		c-29.997-0.272-60.002-0.404-89.995,0.035c-7.551,0.11-7.63-3.547-7.61-9.016c0.113-30.905-0.314-61.818,0.269-92.712
		c0.154-8.186-2.316-12.621-9.386-16.455c-16.207-8.788-32.089-18.203-47.813-27.838c-7.619-4.668-11.751-2.401-15.276,4.943
		c-12.088,25.18-23.145,50.969-36.948,75.184c-20.133,35.323-33.776,73.898-55.646,108.261
		c-9.307,14.624-22.466,19.035-35.385,11.815c-13.756-7.689-17.815-21.609-9.538-36.868c23.857-43.98,43.894-89.881,68.042-133.742
		c9.642-17.512,16.737-36.533,26.617-54.034c3.74-6.624,1.479-9.498-4.269-12.156c-35.854-16.583-66.605-42.201-102.95-58.035
		c-8.927-3.889-16.897-10.164-24.931-15.872c-12.318-8.751-15.229-22.792-7.692-34.639c7.917-12.444,22.077-15.875,35.335-8.539
		c32.28,17.862,63.644,37.434,95.906,55.149c38.078,20.908,74.017,45.443,113.014,64.739c15.915,7.875,29.503,20.155,46.707,27.445
		c0.12-6.192-3.485-11.474-1.132-16.327c3.377-6.961-1.287-8.515-5.79-10.625c-23.222-10.885-45.014-24.207-64.134-41.248
		c-19.672-17.533-43.178-32.079-51.004-59.83c-4.678-16.585-6.321-33.742,0.42-49.565c14.26-33.472,56.397-41.654,87.73-19.728
		c31.568,22.091,64.358,42.443,96.757,63.331c3.891,2.508,8.691,3.605,16.439,6.703c-12.082,0.681-19.556-0.853-27.646-4.373
		c-19.552-8.508-39.812-15.402-59.886-22.675c-2.051-0.743-4.769,0.356-7.177,0.6c-9.579-7.003-18.904-14.39-28.792-20.924
		c-17.341-11.459-41.207-8.688-51.297,5.439c-11.838,16.574-8.466,34.666,8.91,47.807c21.948,20.758,47.656,35.316,75.63,46.28
		c19.794,7.758,39.952,13.874,61.236,15.75c2.21,0.195,5.248,2.569,6.143-0.958c0.848-3.341-2.136-4.336-5.035-5.572
		c-6.498-2.77-17.186,1.272-19.227-6.735c-1.4-5.493,4.318-12.748,6.704-19.271c3.525-9.638,4.369-22.104,11.058-28.235
		c7.119-6.525,19.346,0.487,29.286,1.255c28.237,2.183,53.921-8.771,80.752-13.659c1.108-0.202,1.748-2.343,2.85-3.299
		c11.515-9.993,26.89-9.621,37.534,0.844c11.31,11.119,11.826,24.973,1.835,37.365c-2.278,2.825-8.48,4.232-4.863,10.056
		l0.338-0.305c-7.618-2.807-13.998,1.844-19.981,4.595c-34.016,15.644-69.492,22.517-106.805,19.98
		c-10.196-0.693-12.416,3.156-8.533,12.528c5.023,12.126,2.813,16.144-10.553,18.176c-10.528,1.6-21.373,1.038-31.949,2.416
		c-6.414,0.836-16.902,0.26-9.252,12.532c0.933,1.496-0.944,4.498-0.732,6.728c1.838,19.348,18.54,34.003,38.773,34.207
		c4.119,0.041,8.288,0.464,12.347-0.02c6.52-0.777,8.349,1.574,8.348,8.139c-0.002,14.049,5.648,17.828,19.485,13.498
		c36.353-11.376,72.249-24.462,109.065-34.031c29.385-7.638,58.167-17.234,87.569-24.72c7.633-1.944,13.805,0.878,20.092,3.332
		c47.744,18.63,96.146,35.55,143.309,55.715c17.707,7.571,36.36,12.897,54.344,19.861c15.352,5.945,20.992,20.282,15.122,36.229
		c-4.724,12.835-18.668,18.32-33.97,12.489c-45.084-17.181-90.039-34.699-135.046-52.082c-1.061-0.085-2.122-0.172-3.183-0.259
		C733.729,769.73,734.106,770.659,734.482,771.588z M440.868,785.674c0.119,16.849-0.093,33.71,0.514,50.541
		c0.259,7.177-2.229,9.077-9.05,8.868c-14.308-0.438-28.639-0.155-42.96-0.063c-1.857,0.012-4.366-0.219-4.447,2.745
		c-0.082,2.954,2.086,2.771,4.169,2.758c17.297-0.107,34.595-0.161,51.892-0.265c3.074-0.018,5.758-0.541,5.623-4.648
		c-0.656-20.038,1.402-40.115-0.875-60.13c0.263-11.885,0.281-23.781,0.887-35.648c0.326-6.392-1.828-8.559-8.342-8.467
		c-23.416,0.331-46.843,0.383-70.257-0.019c-6.645-0.114-8.472,2.1-8.376,8.391c0.302,19.717,0.151,39.44,0.154,59.161
		c0.001,11.915,0.107,23.834-0.134,35.745c-0.092,4.537,1.944,5.841,5.946,5.37c2.751-0.324,4.477-1.365,3.389-4.623
		c-5.96-17.85-0.944-36.227-2.585-54.277c-0.63-6.938,4.004-5.603,7.895-5.597C396.497,785.548,418.683,785.617,440.868,785.674z
		 M373.924,849.013c-0.286-0.518-0.583-1.055-0.88-1.593c-0.275,0.275-0.819,0.609-0.773,0.813c0.13,0.582,0.499,1.11,0.773,1.66
		C373.318,849.618,373.593,849.343,373.924,849.013z"/>
	<path fill="#395BA2" d="M722.653,449.152c-5.7-13.778-5.293-28.615-7.178-43.02c-1.209-9.241-2.755-13.873-14.661-12.584
		c-28.249,3.06-56.292,7.519-84.498,10.701c-7.166,0.808-7.868,3.653-7.029,9.423c2.602,17.898,4.983,35.829,7.647,55.186
		c-14.811-7.738-22.868-21.331-36.178-33.433c1.279,9.749,4.841,14.686,9.151,19.561c14.642,16.563,33.042,28.053,51.545,39.614
		c17.815,11.131,17.787,31.127,0.543,40.361c-7.187,3.849-13.749,2.218-21.146-0.599c-24.316-9.261-40.719-28.528-59.707-44.736
		c-21.584-18.423-31.663-42.805-36.908-69.117c-5.998-30.094,3.937-57.33,23.925-79.585c19.675-21.908,42.759-39.802,73.794-43.454
		c4.022-0.473,7.446-1.528,11.82-0.163c19.54,6.097,39.878,9.076,59.509,2.473c23.007-7.738,43.388-1.02,61.996,10.073
		c24.591,14.661,46.062,33.547,54.007,62.954c8.895,32.926-3.975,60.216-22.987,85.929c-16.163,21.859-37.144,38.055-59.779,52.402
		c-8.641,5.477-20.272,2.248-27.049-7.048c-7.089-9.724-5.757-21.603,3.812-29.794c7.632-6.533,17.284-10.834,22.108-20.405
		c35.035-21.748,51.993-59.417,31.76-82.856c8.964,24.98-0.283,43.664-15.579,60.866
		C735.829,438.356,727.342,441.649,722.653,449.152z M579.575,378.126c-16.466,20.799-14.58,50.272,5.345,61.8
		C574.209,418.553,571.38,398.637,579.575,378.126z"/>
	<path fill="#395BA2" d="M584.565,619.795c10.513-0.091,12.839-8.902,15.94-16.002c2.168-4.964,4.283-7.761,9.954-9.113
		c18.292-4.358,36.369-9.614,54.537-14.496c8.074-2.17,16.106-2.838,24.273-0.083c59.092,19.932,118.342,39.405,177.256,59.85
		c22.769,7.901,34.04,30.873,27.746,52.25c-6.63,22.517-28.769,35.359-52.214,29.413c-40.624-10.302-79.896-24.881-119.4-38.7
		c-12.402-4.339-24.634-9.334-37.291-12.737c-18.935-5.091-36.321,3.554-53.987,8.157c-41.252,10.75-82.281,22.36-123.55,33.04
		c-21.713,5.619-43.204,3.4-64.216-4.534c-14.073-5.314-28.727-9.135-43.399-16.55c9.704-4.903,18.804-3.327,27.579-3.532
		c9.227-0.215,18.126-1.407,25.933-6.564c7.052-4.659,11.763-11.234,8.383-19.83c-3.517-8.943,0.426-9.19,7.528-8.992
		c36.964,1.026,71.694-7.957,104.56-24.489c3.81-1.916,8.8-2.534,10.703-7.385C584.903,619.491,584.565,619.795,584.565,619.795z"/>
	<path fill="#395BA2" d="M170.907,414.503c-2.267-40.463,32.705-77.535,77.416-76.53c48.765,1.096,77.27,30.073,76.918,77.603
		c-0.333,45.024-27.634,74.668-76.078,75.938C201.62,492.761,168.13,452.538,170.907,414.503z"/>
	<path fill="#395BA2" d="M740.976,225.491c-0.327,37.543-32.384,73.95-74.081,73.444c-36.98-0.449-72.823-39.318-71.453-75.671
		c1.501-39.838,34.808-72.637,75.067-70.768C714.129,154.521,738.514,182.232,740.976,225.491z"/>
	<path fill="#395BA2" d="M779.845,477.374c10.419,45.027,20.391,88.119,30.951,133.751c-19.588-6.764-37.21-12.666-54.701-18.936
		c-21.238-7.613-42.554-14.892-64.616-19.835c-9.735-2.181-19.033-2.571-29.014,0.104c-17.795,4.77-36.367,6.327-54.004,12.051
		c-2.263,0.734-4.234,1.185-6.346-1.437c-25.424-31.578-25.472-31.537-61.461-15.599c-0.344,0.152-0.815,0.019-2.037,0.019
		c0.648-25.485,10.499-49.15,14.184-73.85c4.558-0.943,5.949,2.867,8.066,4.978c17.83,17.78,37.61,32.781,60.545,43.411
		c1.112,0.515,3.123,0.639,3.324,1.342c4.182,14.683,15.218,7.718,23.412,6.818c24.49-2.69,48.835-6.695,73.317-9.479
		c8.623-0.981,10.384-4.404,7.672-11.926c-2.422-6.715-0.276-11.011,6.213-14.875C751.247,504.441,764.333,491.247,779.845,477.374z
		"/>
	<path fill="#395BA2" d="M591.398,203.41c-7.253-26.837-13.44-50.501-21.68-73.524c-1.099-3.072-0.512-5.512,2.301-7.487
		c32.983-23.164,66.722-43.998,109.772-38.996c23.948,2.783,44.505,13.64,64.44,26.13c25.058,15.699,25.124,15.764,15.845,43.631
		c-5.051,15.171-10.446,30.228-15.764,45.308c-0.22,0.623-1.236,0.966-2.314,1.757c-13.331-35.325-39.229-54.967-76.546-54.428
		C631.296,146.324,606.048,165.814,591.398,203.41z"/>
	<path fill="#395BA2" d="M104.125,503.866c0.733-17.762,11.463-30.012,25.155-38.446c12.198-7.513,25.782-3.598,36.958,4.734
		c9.264,6.907,19.253,12.068,29.412,17.43c15.129,7.987,29.408,17.846,43.171,28.09c16.585,12.345,17.448,28.575,7.703,48.155
		c-7.92,15.915-33.918,24.035-47.437,17.562c-30.482-14.595-57.358-34.801-85.464-53.056
		C105.765,523.231,103.949,513.426,104.125,503.866z"/>
	<path fill="#395BA2" d="M663.732,829.751c0.001,17.693,0.26,35.391-0.071,53.078c-0.337,18.035-15.894,33.426-33.904,34.182
		c-17.875,0.751-35.687-13.714-36.149-31.499c-0.855-32.893-0.161-65.824-0.521-98.734c-0.062-5.666,3.106-6.9,7.083-8.127
		c16.844-5.198,33.919-9.748,50.481-15.723c11.066-3.992,13.047,1.157,13.067,10.042
		C663.761,791.897,663.731,810.824,663.732,829.751z"/>
	<path fill="#395BA2" d="M371.657,560.917c-5.697,15.795-11.824,31.455-16.886,47.452c-2.11,6.67-4.887,3.529-7.839,1.907
		c-14.706-8.079-29.299-16.349-41.798-27.757c-3.008-5.275-9.797-6.927-11.798-13.522c-3.788-12.486,0.216-25.369,11.453-33.737
		c9.193-6.846,21.221-6.354,31.869,1.19C348.273,544.68,358.362,555.093,371.657,560.917z"/>
	<path fill="#395BA2" d="M674.383,796.141c3.991,6.212,7.646,10.561,9.848,15.551c12.078,27.376,31.152,51.31,39.55,80.484
		c0.332,1.155,1.155,2.174,1.78,3.239c7.533,12.831,3.691,19.532-11.614,21.552c-17.706,2.337-40.593-10.722-39.781-34.953
		C675.1,854.123,674.383,826.177,674.383,796.141z"/>
	<path fill="#395BA2" d="M734.482,771.588c-0.377-0.929-0.753-1.858-1.13-2.787c1.061,0.087,2.122,0.174,3.183,0.259
		C735.851,769.902,735.167,770.745,734.482,771.588z"/>
	<path fill="#395BA2" d="M373.924,849.013c-0.331,0.331-0.606,0.605-0.88,0.88c-0.275-0.549-0.644-1.078-0.773-1.66
		c-0.045-0.203,0.498-0.538,0.773-0.813C373.34,847.957,373.637,848.494,373.924,849.013z"/>
</g>
</svg>
