<?xml version="1.0" encoding="UTF-8" standalone="no" ?>
<!DOCTYPE svg PUBLIC "-//W3C//DTD SVG 1.1//EN" "http://www.w3.org/Graphics/SVG/1.1/DTD/svg11.dtd">
<svg xmlns="http://www.w3.org/2000/svg" xmlns:xlink="http://www.w3.org/1999/xlink" version="1.1" width="1080" height="1080" viewBox="0 0 1080 1080" xml:space="preserve">
<desc>Created with Fabric.js 4.2.0</desc>
<defs>
</defs>
<g transform="matrix(1 0 0 1 540 540)" id="f65999f3-320b-40c0-afc9-c2555555b432"  >
<rect style="stroke: none; stroke-width: 1; stroke-dasharray: none; stroke-linecap: butt; stroke-dashoffset: 0; stroke-linejoin: miter; stroke-miterlimit: 4; fill: rgb(255,255,255); fill-rule: nonzero; opacity: 1;" vector-effect="non-scaling-stroke"  x="-540" y="-540" rx="0" ry="0" width="1080" height="1080" />
</g>
<g transform="matrix(1 0 0 1 540 540)" id="2bcf37ff-e776-47e4-a1f5-8841de075596"  >
</g>
<g transform="matrix(0.6 0 0 0.6 540 540)" id="79086b34-2ec3-4a2b-bb97-38f08b38d074"  >
<path style="stroke: rgb(0,0,0); stroke-width: 0; stroke-dasharray: none; stroke-linecap: butt; stroke-dashoffset: 0; stroke-linejoin: miter; stroke-miterlimit: 4; fill: rgb(219,138,222); fill-rule: nonzero; opacity: 1;" vector-effect="non-scaling-stroke"  transform=" translate(-500, -499.99)" d="M 816.277 386.875 C 752.1790000000001 386.59 688.078 386.683 623.979 386.829 C 597.4870000000001 386.889 581.0730000000001 403.732 581.07 430.197 C 581.061 516.496 581.239 602.796 580.863 689.0930000000001 C 580.8050000000001 702.3330000000001 585.3130000000001 712.6880000000001 594.249 721.734 C 602.6120000000001 733.4250000000001 612.6170000000001 743.734 623.1320000000001 753.347 C 632.3800000000001 761.802 639.08 770.43 636.3710000000001 783.749 C 636.0860000000001 785.148 637.1370000000001 786.818 637.5670000000001 788.363 C 637.9410000000001 793.59 641.7870000000001 795.201 645.9920000000001 795.768 C 652.3360000000001 796.625 656.065 792.7710000000001 658.5330000000001 786.929 C 669.6140000000001 795.9449999999999 680.6710000000002 803.639 695.4540000000002 801.682 C 698.1440000000002 801.326 699.9710000000002 802.557 699.2960000000002 805.379 C 698.6360000000002 808.136 701.7260000000001 812.261 696.5660000000001 813.518 C 693.9750000000001 814.149 691.0210000000002 813.9110000000001 689.2120000000001 816.489 C 683.4440000000001 820.003 681.8560000000001 825.1790000000001 683.6360000000001 831.4150000000001 C 685.3310000000001 837.3520000000001 689.3710000000001 840.4630000000001 695.6300000000001 841.1850000000001 C 702.2770000000002 841.9520000000001 711.3900000000001 837.619 714.9590000000001 843.5440000000001 C 718.014 848.6150000000001 715.576 856.9940000000001 715.5770000000001 863.9090000000001 C 715.5770000000001 864.1810000000002 715.6770000000001 864.4530000000001 715.7310000000001 864.7300000000001 C 715.2750000000001 867.4220000000001 714.6930000000001 870.1050000000001 714.3820000000001 872.8190000000002 C 711.5300000000001 897.7040000000002 703.349 906.6380000000001 678.8950000000001 910.6630000000002 C 659.7740000000001 913.8100000000003 640.3450000000001 913.2630000000003 621.094 914.9210000000003 C 595.6980000000001 914.4560000000002 570.282 914.4620000000003 544.9100000000001 913.4050000000003 C 513.7880000000001 912.1090000000003 482.43700000000007 914.1110000000003 451.63400000000007 907.6100000000004 C 451.61800000000005 907.6660000000004 451.6090000000001 907.7220000000003 451.5930000000001 907.7780000000004 C 450.85100000000006 907.5000000000003 450.1090000000001 907.2230000000004 449.36500000000007 906.9450000000004 C 444.6140000000001 905.0810000000004 439.8190000000001 903.3200000000004 435.13700000000006 901.2990000000004 C 433.41600000000005 900.5560000000004 430.62100000000004 899.8870000000004 432.81300000000005 896.8740000000005 C 444.206 893.7810000000005 453.84000000000003 887.4980000000005 462.65000000000003 879.9410000000005 C 478.672 866.1990000000005 487.773 849.5050000000005 483.987 827.6220000000005 C 481.223 806.7310000000006 469.98600000000005 792.7890000000006 452.67900000000003 788.7770000000005 C 441.848 786.4850000000005 431.807 788.9820000000005 422.274 794.0230000000005 C 395.938 807.9500000000005 382.424 836.9990000000005 388.325 866.7910000000005 C 388.24899999999997 870.7600000000006 389.545 874.4470000000005 390.965 878.0280000000005 C 393.28999999999996 883.8900000000004 390.866 884.4010000000005 385.779 883.5350000000004 C 375.185 881.7320000000004 365.94 876.8210000000004 356.703 871.7880000000005 C 355.643 870.8950000000004 354.58299999999997 870.0020000000005 353.522 869.1110000000004 C 353.515 869.1470000000004 353.52 869.1690000000004 353.514 869.2040000000004 C 352.937 868.7540000000004 352.36 868.3040000000004 351.783 867.8550000000004 C 351.785 867.8550000000004 351.786 867.8550000000004 351.788 867.8550000000004 C 351.04900000000004 867.1640000000003 350.31 866.4730000000004 349.569 865.7800000000003 C 349.584 865.9490000000003 349.606 866.1110000000003 349.635 866.2640000000004 C 349.605 866.1110000000003 349.58299999999997 865.9490000000003 349.568 865.7800000000003 C 349.518 865.1180000000003 349.159 864.7780000000004 348.493 864.7610000000003 C 347.712 863.1010000000003 346.545 861.8400000000003 344.817 861.1610000000003 C 344.355 860.5950000000003 343.89300000000003 860.0280000000002 343.432 859.4640000000003 C 343.474 859.4700000000003 343.51 859.4810000000003 343.552 859.4860000000003 C 341.634 856.8700000000003 339.716 854.2550000000003 337.798 851.6400000000003 C 335.682 847.6280000000004 333.565 843.6160000000003 331.448 839.6050000000004 C 331.44899999999996 839.6040000000004 331.491 839.5980000000004 331.491 839.5980000000004 C 327.71 827.3940000000005 324.464 815.1070000000004 324.46799999999996 802.1730000000005 C 324.49399999999997 717.7690000000005 324.51099999999997 633.3640000000005 324.46 548.9600000000005 C 324.43699999999995 511.4870000000005 324.24699999999996 474.01400000000046 324.133 436.54300000000046 C 324.248 430.9990000000005 324.452 425.45900000000046 324.459 419.91800000000046 C 324.479 405.39000000000044 324.444 405.39000000000044 338.839 404.91100000000046 C 347.323 404.6290000000005 352.384 400.38200000000046 353.145 392.90400000000045 C 353.98499999999996 384.65400000000045 350.13599999999997 379.63200000000046 341.514 377.4270000000005 C 339.757 376.97800000000046 337.576 377.8760000000005 336.25800000000004 375.78600000000046 C 333.93000000000006 372.0930000000005 336.59200000000004 360.58400000000046 340.54600000000005 358.08400000000046 C 359.78100000000006 345.92600000000044 378.52200000000005 333.05700000000047 396.22400000000005 318.7490000000005 C 426.737 294.08600000000047 455.2900000000001 267.5350000000005 475.09200000000004 233.0490000000005 C 492.487 202.75600000000048 499.27000000000004 171.11300000000048 484.53200000000004 137.7170000000005 C 477.55400000000003 121.9070000000005 467.968 107.78700000000049 452.88000000000005 98.2910000000005 C 446.34200000000004 89.4800000000005 437.00800000000004 84.60800000000049 427.36000000000007 80.1820000000005 C 423.5470000000001 82.4130000000005 419.73300000000006 84.6440000000005 415.9190000000001 86.8760000000005 C 428.7770000000001 92.9740000000005 440.2480000000001 101.1430000000005 451.0130000000001 110.3660000000005 C 451.2670000000001 109.1170000000005 451.19200000000006 107.8180000000005 451.0800000000001 106.5130000000005 C 451.1930000000001 107.81800000000051 451.2680000000001 109.1180000000005 451.0140000000001 110.3660000000005 C 462.41500000000013 123.31100000000049 473.17900000000014 136.6300000000005 477.6250000000001 153.8500000000005 C 484.2070000000001 179.34100000000052 478.05200000000013 202.7700000000005 465.7760000000001 225.0250000000005 C 448.30400000000014 256.7010000000005 422.7810000000001 281.3500000000005 395.28000000000014 304.1020000000005 C 376.9180000000001 319.2940000000005 357.32100000000014 332.8150000000005 337.0240000000001 345.9750000000005 C 333.9950000000001 338.2340000000005 336.8350000000001 334.0300000000005 342.8560000000001 329.8880000000005 C 374.6740000000001 308.00200000000046 404.4500000000001 283.64400000000046 429.8110000000001 254.3370000000005 C 443.2380000000001 238.8210000000005 455.2740000000001 222.2990000000005 462.47300000000007 202.7640000000005 C 471.6160000000001 177.9530000000005 471.74500000000006 153.67200000000048 455.23800000000006 131.9350000000005 C 437.69800000000004 108.8380000000005 416.20500000000004 91.43000000000052 384.74300000000005 93.24000000000052 C 369.31700000000006 94.12700000000052 355.88800000000003 100.29100000000052 344.18300000000005 110.29500000000053 C 343.66800000000006 110.72500000000053 343.1530000000001 111.15600000000053 342.63800000000003 111.58600000000052 C 342.63800000000003 111.58500000000052 342.63800000000003 111.58500000000052 342.63800000000003 111.58400000000053 C 342.63800000000003 111.58400000000053 342.63800000000003 111.58400000000053 342.63800000000003 111.58400000000053 L 342.63800000000003 111.58400000000053 L 342.63800000000003 111.58400000000053 C 331.51500000000004 118.41400000000053 324.11100000000005 129.08700000000053 315.333 138.42100000000053 C 312.24 135.36100000000053 309.348 132.50100000000054 306.45700000000005 129.64100000000053 L 306.45700000000005 129.64000000000053 L 306.45700000000005 129.64000000000053 L 306.45700000000005 129.64000000000053 C 306.45900000000006 129.6490000000005 306.46000000000004 129.65900000000053 306.46200000000005 129.66800000000052 C 305.94100000000003 129.11700000000053 305.42100000000005 128.5650000000005 304.90100000000007 128.01400000000052 C 304.9170000000001 128.0120000000005 304.93000000000006 128.01300000000052 304.94700000000006 128.01000000000053 C 304.94700000000006 128.01000000000053 304.94700000000006 128.01000000000053 304.94700000000006 128.01000000000053 C 304.94700000000006 128.01000000000053 304.94800000000004 128.01000000000053 304.94800000000004 128.01000000000053 L 304.94700000000006 128.00900000000053 C 304.3910000000001 126.30300000000052 303.25700000000006 125.16900000000052 301.58600000000007 124.56800000000052 C 300.96200000000005 122.89700000000052 299.8020000000001 121.77800000000052 298.0900000000001 121.22900000000053 C 298.0880000000001 121.24900000000052 298.0890000000001 121.26500000000053 298.0870000000001 121.28400000000053 C 297.5040000000001 120.72900000000053 296.9210000000001 120.17500000000054 296.3390000000001 119.62100000000054 C 296.3410000000001 119.63200000000053 296.3460000000001 119.63900000000054 296.3480000000001 119.65000000000053 C 295.7530000000001 119.12300000000053 295.15800000000013 118.59600000000053 294.5630000000001 118.06900000000053 L 294.7510000000001 118.25500000000054 C 294.1600000000001 117.69500000000053 293.5700000000001 117.13500000000053 292.9790000000001 116.57600000000053 C 292.9900000000001 116.57600000000053 293.0010000000001 116.57700000000054 293.0120000000001 116.57700000000054 L 293.0120000000001 116.57700000000054 C 293.0120000000001 116.57700000000054 293.0120000000001 116.57700000000054 293.0120000000001 116.57700000000054 L 293.0100000000001 116.57600000000053 C 290.0870000000001 113.28900000000053 286.8870000000001 110.36900000000054 282.6770000000001 108.79000000000053 C 282.26700000000005 108.45500000000054 281.7990000000001 108.31700000000053 281.2730000000001 108.37700000000054 C 280.71400000000006 107.77900000000054 280.1550000000001 107.18100000000054 279.5970000000001 106.58300000000054 C 279.6040000000001 106.58300000000054 279.61000000000007 106.58400000000054 279.6170000000001 106.58400000000054 C 279.6170000000001 106.58400000000054 279.6160000000001 106.58400000000054 279.6160000000001 106.58300000000054 C 279.6160000000001 106.58300000000054 279.6170000000001 106.58300000000054 279.6170000000001 106.58300000000054 L 279.5520000000001 106.53400000000053 C 279.55800000000005 106.54100000000054 279.5640000000001 106.54700000000054 279.57000000000005 106.55300000000054 C 278.51300000000003 105.88000000000054 277.45500000000004 105.20600000000054 276.398 104.53200000000054 C 253.264 89.60300000000053 229.29200000000003 87.07000000000053 205.235 101.51200000000054 C 186.305 112.87600000000054 171.23600000000002 128.00900000000053 165.638 150.47000000000054 C 165.638 150.47200000000055 165.638 150.47400000000053 165.639 150.47500000000053 C 164.10000000000002 151.70800000000054 164.215 153.39200000000054 164.37900000000002 155.08900000000054 C 164.092 156.00400000000053 163.805 156.91800000000055 163.51800000000003 157.83300000000054 C 165.96600000000004 159.55400000000054 166.38400000000004 161.74900000000054 166.31200000000004 164.03400000000053 C 166.38400000000004 161.74900000000054 165.96600000000004 159.55500000000052 163.51800000000003 157.83500000000052 C 161.70300000000003 168.72400000000053 161.78300000000002 179.50400000000053 165.34700000000004 190.08500000000052 C 167.75400000000005 201.61500000000052 172.27100000000004 212.22900000000053 179.12900000000005 221.8270000000005 C 179.26800000000006 222.6420000000005 179.16600000000005 223.6160000000005 179.58100000000005 224.2500000000005 C 197.82000000000005 252.07300000000052 220.24500000000006 276.0570000000005 246.23500000000004 296.7590000000005 C 259.165 308.94300000000055 273.35300000000007 319.58100000000053 288.134 329.31300000000056 C 294.93600000000004 333.79200000000054 296.175 338.86800000000056 293.96700000000004 346.5430000000006 C 272.82700000000006 333.5760000000006 254.23600000000005 317.89700000000056 234.97100000000003 303.14700000000056 C 233.63800000000003 304.0980000000006 231.94900000000004 304.59400000000056 230.39700000000002 305.2660000000006 C 229.954 305.4580000000006 229.52200000000002 305.6640000000006 229.11200000000002 305.9000000000006 C 229.52100000000002 305.6650000000006 229.95300000000003 305.4580000000006 230.39700000000002 305.2660000000006 C 231.949 304.59400000000056 233.63800000000003 304.0980000000006 234.97100000000003 303.14700000000056 C 227.11000000000004 295.92300000000057 219.25000000000003 288.6990000000006 211.38900000000004 281.47500000000053 C 211.38900000000004 281.47500000000053 211.38900000000004 281.47500000000053 211.38900000000004 281.47500000000053 L 211.38900000000004 281.47400000000056 C 211.37700000000004 281.4970000000006 211.37100000000004 281.52300000000054 211.35900000000004 281.54600000000056 C 211.35900000000004 281.54600000000056 211.35900000000004 281.54600000000056 211.35900000000004 281.54600000000056 C 210.05800000000005 284.09200000000055 211.81900000000005 287.5910000000006 211.00200000000004 290.28700000000055 C 210.85200000000003 290.78200000000055 210.61500000000004 291.25000000000057 210.25600000000003 291.67900000000054 C 210.61500000000004 291.24900000000054 210.85200000000003 290.78200000000055 211.00200000000004 290.28700000000055 C 211.81900000000005 287.59000000000054 210.05800000000005 284.0910000000005 211.35900000000004 281.5450000000005 C 210.75700000000003 280.91200000000055 210.15500000000003 280.28000000000054 209.55400000000003 279.6470000000005 C 199.11500000000004 267.5090000000005 188.67600000000004 255.3710000000005 178.23700000000002 243.23300000000052 L 178.23700000000002 243.23300000000052 C 177.69700000000003 242.49500000000052 177.157 241.7560000000005 176.61700000000002 241.0170000000005 L 176.71900000000002 240.84000000000052 C 173.42900000000003 235.6610000000005 170.139 230.48300000000052 166.85000000000002 225.3040000000005 C 166.85000000000002 225.3040000000005 166.85000000000002 225.3030000000005 166.85000000000002 225.3030000000005 C 160.41800000000003 212.9460000000005 155.32100000000003 200.0640000000005 151.63600000000002 186.62700000000052 L 151.63600000000002 186.62700000000052 C 151.20400000000004 182.65100000000052 150.77300000000002 178.67500000000052 150.342 174.69900000000052 L 150.342 174.69900000000052 C 150.342 174.70300000000051 150.59 174.17700000000053 150.59 174.17700000000053 L 150.249 173.70600000000053 C 150.242 172.49800000000053 150.23499999999999 171.29000000000053 150.228 170.08200000000053 C 150.633 153.80200000000053 155.401 138.83800000000053 163.841 124.98200000000054 C 162.41 122.19800000000053 160.335 121.60300000000053 158.096 121.56700000000053 C 160.335 121.60300000000053 162.411 122.19700000000053 163.842 124.98100000000053 C 174.74300000000002 109.92600000000053 188.312 97.84800000000054 204.423 88.61000000000053 C 233.101 76.08100000000053 259.902 80.95900000000053 285.399 97.43700000000052 C 294.295 103.18500000000053 302.57 109.80600000000052 309.652 117.65600000000052 C 313.539 121.96400000000051 315.622 121.19800000000052 319.236 117.32400000000052 C 336.015 99.34000000000052 355.58 86.18300000000053 380.68399999999997 82.70500000000052 C 392.88899999999995 81.01400000000052 404.34999999999997 84.02900000000052 415.92199999999997 86.86800000000052 C 419.73699999999997 84.63700000000053 423.551 82.40600000000052 427.364 80.17500000000052 C 413.375 72.39800000000052 398.301 69.73300000000052 382.495 70.93600000000052 C 357.886 72.81000000000051 337.491 83.98700000000052 319.697 100.32900000000052 C 315.629 104.06500000000052 313.25 104.54200000000051 308.921 100.57000000000052 C 295.126 87.91300000000052 279.399 78.20600000000051 261.134 73.42000000000053 C 236.54200000000003 66.97500000000053 213.012 69.09100000000053 191.34900000000002 83.50500000000054 C 175.12600000000003 92.84600000000053 162.031 105.34000000000054 152.798 121.73000000000053 C 143.675 134.78400000000053 139.074 149.26000000000053 139.126 165.19900000000052 L 139.126 165.19900000000052 C 138.251 167.3330000000005 138.364 169.48600000000053 139.011 171.64800000000054 C 138.059 174.69000000000054 138.51999999999998 177.66200000000055 139.452 180.62200000000053 C 139.25 183.90700000000052 139.22299999999998 187.17200000000054 141.131 190.09500000000054 C 143.49 206.59200000000055 150.373 221.23900000000054 159.477 234.97800000000055 C 159.903 237.03800000000055 160.883 238.73600000000056 162.681 239.90700000000055 C 174.613 260.3000000000005 190.549 277.32200000000057 207.702 293.3170000000006 C 213.389 299.40700000000055 219.534 304.9940000000006 226.147 310.0640000000006 C 227.34799999999998 311.2030000000006 228.49599999999998 312.40400000000056 229.756 313.4730000000006 C 248.82 329.6430000000006 268.579 344.9370000000006 289.772 358.18800000000056 C 296.49899999999997 362.3940000000006 294.637 367.98000000000053 294.801 373.48400000000055 C 294.966 379.0670000000006 289.95099999999996 376.77500000000055 287.336 377.73900000000054 C 281.128 380.02700000000056 277.735 383.9590000000006 277.594 390.64700000000056 C 277.384 400.6050000000006 282.762 405.44000000000057 295.491 404.71300000000053 C 303.711 404.2430000000005 306.04699999999997 406.29000000000053 306.006 414.92900000000054 C 305.976 421.14200000000056 305.967 427.35500000000053 305.94199999999995 433.56800000000055 C 305.93299999999994 433.88500000000056 305.92999999999995 434.20200000000057 305.93899999999996 434.5190000000006 C 305.652 508.7780000000006 305.727 583.0390000000006 305.78499999999997 657.3000000000006 C 305.82199999999995 705.0330000000006 306.042 752.7660000000006 306.17999999999995 800.5000000000007 C 306.07199999999995 817.4140000000007 309.57699999999994 833.5020000000006 317.19499999999994 848.6480000000007 L 317.21099999999996 848.6250000000007 C 317.436 850.4170000000007 317.864 852.1100000000007 319.45199999999994 853.2400000000007 C 319.45199999999994 853.2400000000007 319.4959999999999 853.3490000000007 319.4959999999999 853.3490000000007 C 319.8759999999999 853.9960000000008 320.25699999999995 854.6430000000007 320.63699999999994 855.2900000000008 C 320.60499999999996 855.2760000000007 320.58199999999994 855.2570000000007 320.54999999999995 855.2430000000007 C 321.21099999999996 857.7430000000007 322.311 859.9720000000008 324.44399999999996 861.5670000000007 C 324.44399999999996 861.5660000000007 324.51099999999997 861.6940000000006 324.51099999999997 861.6940000000006 C 324.731 863.4490000000006 325.748 864.6110000000007 327.191 865.4550000000006 C 327.512 866.7540000000006 328.097 867.8510000000006 329.455 868.3600000000006 C 331.89099999999996 872.5920000000006 335.29499999999996 875.8750000000006 339.395 878.4740000000006 C 339.394 878.4700000000006 339.392 878.4660000000006 339.39099999999996 878.4620000000007 C 339.948 878.9770000000007 340.50499999999994 879.4920000000006 341.063 880.0080000000007 C 341.06 880.0080000000007 341.057 880.0080000000007 341.053 880.0080000000007 C 343.148 882.6310000000008 345.719 884.5950000000007 348.895 885.7200000000007 C 351.102 887.4030000000007 352.455 890.5410000000007 356.036 889.8840000000007 C 369.401 898.6750000000008 384.765 900.8800000000007 400.098 902.9310000000007 C 403.846 903.4320000000007 406.875 904.3460000000007 409.785 906.8440000000007 C 421.221 916.6560000000007 434.66200000000003 922.1800000000007 449.444 924.6230000000007 C 458.296 927.1130000000007 467.387 927.9860000000008 476.517 928.4840000000007 C 523.89 931.0690000000008 571.305 929.5480000000007 618.701 929.9040000000007 C 641.691 930.0760000000007 664.677 929.8120000000007 687.605 927.8080000000007 C 688.839 927.7370000000006 690.0740000000001 927.6660000000006 691.308 927.5950000000007 C 694.212 926.9530000000007 697.402 927.3610000000007 699.907 925.2490000000007 C 712.0970000000001 922.5730000000007 719.2370000000001 914.0260000000007 724.445 903.5800000000007 C 732.436 887.5530000000007 734.1930000000001 870.0950000000007 733.9730000000001 852.6360000000008 C 733.8560000000001 843.4220000000007 735.8480000000001 839.8450000000007 745.57 840.9160000000007 C 753.4190000000001 841.7810000000007 757.772 836.4680000000008 759.0690000000001 829.0830000000008 C 760.2610000000001 822.2970000000008 755.994 815.3610000000008 748.7080000000001 814.4140000000008 C 742.022 813.5450000000008 742.4870000000001 809.8040000000008 742.667 805.3620000000008 C 742.932 798.8320000000008 748.005 801.8330000000008 750.777 801.8050000000007 C 761.615 801.6920000000007 772.4960000000001 802.3920000000007 781.6880000000001 794.9960000000008 C 784.1700000000001 792.9990000000008 785.9600000000002 791.7660000000008 789.6780000000001 794.2340000000008 C 795.613 798.1740000000009 801.3120000000001 795.4740000000008 804.7170000000001 788.5530000000008 C 806.4580000000001 787.0350000000008 806.0240000000001 784.9020000000008 805.7440000000001 783.1610000000007 C 804.5340000000001 775.6210000000008 807.8420000000001 770.3970000000007 812.9600000000002 765.1390000000007 C 822.1380000000001 755.7110000000007 831.0660000000001 745.9800000000007 838.7260000000001 735.2070000000007 C 843.9180000000001 730.5410000000006 847.6090000000002 724.6640000000007 851.4900000000001 718.9900000000007 C 856.0040000000001 712.3910000000006 861.0560000000002 705.7610000000006 861.1120000000001 697.3240000000006 C 861.2470000000001 677.1290000000006 860.989 656.9320000000006 860.8890000000001 636.7360000000007 C 860.8910000000001 609.4740000000006 860.8930000000001 582.2120000000007 860.8950000000001 554.9510000000007 C 861.0130000000001 514.1690000000007 860.4380000000001 473.3700000000007 861.4940000000001 432.61300000000074 C 862.199 405.285 846.071 387.008 816.277 386.875 z M 450.904 104.166 C 450.926 104.684 450.969 105.206 451.015 105.729 C 450.968 105.206 450.925 104.685 450.904 104.166 z M 306.797 133.089 C 306.798 133.382 306.79600000000005 133.675 306.79200000000003 133.969 C 306.796 133.675 306.798 133.382 306.797 133.089 z M 307.793 289.827 C 307.808 283.45799999999997 307.726 277.087 307.841 270.719 C 307.726 277.086 307.808 283.457 307.801 289.827 C 307.793 295.643 307.74 301.459 307.822 307.274 C 307.739 301.459 307.793 295.643 307.793 289.827 z M 298.083 121.421 C 297.89200000000005 121.38600000000001 297.699 121.352 297.538 121.284 C 297.699 121.352 297.892 121.385 298.083 121.421 C 298.083 121.42 298.083 121.42 298.083 121.421 z M 469.409 829.519 C 469.394 830.236 469.335 830.952 469.346 831.592 C 469.335 830.952 469.395 830.236 469.409 829.519 C 469.43399999999997 828.324 469.335 827.128 468.582 826.288 C 469.336 827.128 469.434 828.324 469.409 829.519 z M 467.564 824.356 C 467.576 824.032 467.552 823.721 467.48600000000005 823.424 C 467.553 823.72 467.576 824.032 467.564 824.356 z M 467.385 823.102 C 467.36 823.034 467.343 822.963 467.312 822.8969999999999 C 467.344 822.963 467.36 823.034 467.385 823.102 z M 401.085 872.239 C 401.44399999999996 872.51 401.80199999999996 872.784 402.15999999999997 873.057 C 402.515 873.327 402.87199999999996 873.591 403.231 873.849 C 402.871 873.591 402.514 873.327 402.15999999999997 873.057 C 401.802 872.784 401.444 872.51 401.085 872.239 z M 416.017 883.499 C 414.588 882.3340000000001 413.15999999999997 881.169 411.731 880.004 C 411.246 879.863 410.85699999999997 879.672 410.551 879.436 C 410.856 879.671 411.245 879.863 411.729 880.003 C 411.07099999999997 878.7610000000001 410.41499999999996 877.5200000000001 409.75899999999996 876.2800000000001 C 409.75899999999996 876.2800000000001 409.864 876.2120000000001 409.866 876.2120000000001 C 409.866 876.2120000000001 409.86699999999996 876.2120000000001 409.86699999999996 876.2120000000001 C 403.09999999999997 857.8600000000001 405.17199999999997 840.3280000000001 414.75699999999995 823.4920000000001 C 418.62799999999993 820.0350000000001 422.19699999999995 816.1450000000001 426.42199999999997 813.196 C 443.08799999999997 801.565 455.811 804.419 466.15799999999996 821.753 C 466.08899999999994 823.1510000000001 466.09399999999994 824.524 467.43999999999994 825.4300000000001 C 467.43999999999994 825.4300000000001 467.33099999999996 825.4730000000001 467.33099999999996 825.4730000000001 C 467.33099999999996 825.4730000000001 467.33099999999996 825.4730000000001 467.33 825.4730000000001 C 468.481 851.4910000000001 451.878 872.0920000000001 422.272 881.397 C 420.174 882.056 418.102 882.796 416.017 883.499 C 417.162 885.107 419.177 884.683 420.626 884.8720000000001 C 419.178 884.683 417.162 885.107 416.017 883.499 z M 589.651 694.769 C 589.5949999999999 694.546 589.5509999999999 694.319 589.519 694.087 C 589.552 694.319 589.596 694.546 589.651 694.769 z M 589.509 690.831 C 589.471 691.4440000000001 589.432 692.065 589.4300000000001 692.676 C 589.432 692.065 589.471 691.444 589.509 690.831 z M 595.427 712.221 C 595.533 712.698 595.634 713.175 595.719 713.651 C 595.634 713.174 595.533 712.698 595.427 712.221 z M 693.772 790.092 C 683.2040000000001 791.2289999999999 676.1700000000001 784.609 668.2370000000001 779.792 C 667.5520000000001 779.284 666.8670000000001 778.7760000000001 666.1820000000001 778.268 C 666.2040000000002 778.267 666.2220000000001 778.2610000000001 666.2440000000001 778.26 C 659.6080000000002 773.1419999999999 655.6370000000002 766.995 658.7470000000002 757.655 C 666.3070000000001 762.1 671.4290000000002 769.598 679.1680000000002 773.574 L 679.1680000000002 773.574 L 679.1680000000002 773.574 C 679.1710000000003 773.558 679.1740000000002 773.5409999999999 679.1770000000002 773.525 C 679.1770000000002 773.525 679.1770000000002 773.525 679.1770000000002 773.525 C 679.2950000000003 772.8 679.4500000000003 772.0609999999999 679.6890000000002 771.372 C 679.8520000000002 770.9029999999999 680.0530000000002 770.4559999999999 680.3070000000002 770.054 C 680.0530000000002 770.456 679.8520000000002 770.9019999999999 679.6890000000002 771.372 C 679.4500000000002 772.0609999999999 679.2950000000002 772.8 679.1770000000002 773.525 C 679.8540000000003 774.069 680.5310000000003 774.614 681.2080000000002 775.158 C 684.5540000000002 779.187 689.0200000000002 780.029 693.9140000000002 779.585 C 697.4670000000002 779.2620000000001 699.5200000000002 779.989 699.5220000000002 784.404 C 699.524 788.825 697.962 789.642 693.772 790.092 z M 763.884 789.812 C 758.364 790.245 752.771 789.6850000000001 747.236 790.0020000000001 C 742.529 790.272 742.754 787.4820000000001 742.617 784.2120000000001 C 742.4649999999999 780.5830000000001 743.7869999999999 778.8840000000001 747.385 779.5330000000001 C 762.6179999999999 782.2800000000001 773.563 775.1500000000001 783.477 762.6280000000002 C 785.384 777.799 776.915 788.79 763.884 789.812 z M 801.373 754.609 C 801.845 753.898 802.244 753.154 802.604 752.393 C 802.244 753.154 801.846 753.898 801.373 754.609 z M 803.545 750.066 C 804.7959999999999 746.3910000000001 805.2479999999999 742.351 806.019 738.4110000000001 C 806.019 738.4110000000001 806.019 738.4110000000001 806.019 738.4110000000001 C 805.248 742.351 804.796 746.391 803.545 750.066 z M 849.481 558.416 C 848.835 583.4000000000001 848.73 608.384 849.529 633.3670000000001 C 849.362 652.3860000000001 848.963 671.407 849.149 690.422 C 849.217 697.3960000000001 847.253 703.2810000000001 843.657 709.058 C 836.057 721.265 825.889 731.479 817.6210000000001 743.155 C 814.2010000000001 746.654 810.7810000000001 750.153 806.0210000000001 755.023 C 806.0210000000001 748.4630000000001 806.0210000000001 743.437 806.0210000000001 738.4110000000001 C 816.7330000000001 727.591 825.8820000000001 715.5110000000001 834.6310000000001 703.096 C 839.7540000000001 695.826 837.9040000000001 687.761 837.613 679.85 L 837.613 679.85 C 837.613 642.148 837.614 604.445 837.614 566.741 C 837.7560000000001 525.99 837.899 485.239 838.038 444.489 C 838.056 439.21999999999997 838.112 433.95099999999996 838.041 428.683 C 837.87 416.019 831.238 409.188 818.5210000000001 409.089 C 798.2790000000001 408.932 778.0340000000001 409.054 757.7900000000001 409.058 C 713.4200000000001 409.068 669.051 409.027 624.681 409.122 C 612.018 409.149 605.515 414.50300000000004 604.672 425.00600000000003 C 605.879 429.17400000000004 606.259 433.37600000000003 606.304 437.591 C 606.259 433.37600000000003 605.8779999999999 429.175 604.672 425.007 C 604.6600000000001 446.745 604.648 468.483 604.6360000000001 490.22 C 604.522 511.543 604.465 532.866 604.2420000000001 554.187 C 604.2020000000001 558.027 605.3650000000001 559.667 609.4520000000001 559.551 C 621.8890000000001 559.1980000000001 634.3340000000001 559.1370000000001 646.7760000000001 558.962 C 644.696 557.874 644.4190000000001 556.096 644.3910000000001 554.1179999999999 C 644.4190000000001 556.0959999999999 644.6970000000001 557.8749999999999 646.7840000000001 558.962 C 662.1380000000001 559.723 677.4840000000002 559.975 692.8280000000001 558.877 C 699.9270000000001 562.178 697.306 565.4739999999999 692.8230000000001 568.769 C 692.2600000000001 577.324 691.6970000000001 585.879 691.123 594.611 C 691.697 585.879 692.2610000000001 577.324 692.8230000000001 568.7669999999999 C 677.7730000000001 565.958 662.6450000000001 567.6529999999999 647.5400000000001 567.972 C 634.816 567.8 622.089 567.741 609.3700000000001 567.391 C 605.2510000000001 567.2779999999999 604.4050000000001 569.01 604.1950000000002 572.7779999999999 C 602.8900000000002 596.1209999999999 602.8010000000002 596.0949999999999 626.2940000000002 596.1159999999999 C 647.6350000000002 596.1349999999999 668.9760000000002 596.1799999999998 690.3170000000002 596.2869999999999 C 693.0980000000002 596.3009999999999 696.8710000000002 595.0239999999999 696.7920000000003 600.1289999999999 C 696.7120000000002 605.2669999999999 692.8910000000003 603.7529999999999 690.1550000000003 603.7909999999999 C 664.9700000000004 604.136 639.7690000000003 603.1099999999999 614.5980000000003 604.685 C 617.2600000000003 609.8599999999999 622.0120000000003 612.126 626.7920000000003 614.2679999999999 C 622.0110000000003 612.1259999999999 617.2590000000002 609.8599999999999 614.5960000000002 604.685 C 604.3030000000002 603.212 604.2990000000002 603.212 604.2880000000002 613.0469999999999 C 604.2820000000003 618.036 604.3090000000002 623.026 604.2910000000003 628.0149999999999 C 604.2820000000003 630.6499999999999 604.4770000000003 633.4799999999999 607.9140000000003 633.3189999999998 C 614.7360000000003 632.9999999999999 621.6680000000003 634.6549999999999 628.3820000000003 632.2899999999998 L 629.0420000000003 632.5029999999998 C 629.0420000000003 632.5029999999998 629.5290000000002 632.0579999999998 629.5370000000003 632.0569999999998 C 630.5910000000002 632.0049999999998 631.6530000000002 631.9519999999998 632.7150000000003 631.8999999999997 C 643.1800000000003 633.3809999999997 653.7010000000002 632.3929999999998 664.1940000000003 632.5889999999997 C 671.6740000000003 632.7289999999997 679.1730000000003 632.3459999999997 686.6360000000003 632.7289999999997 C 690.2530000000003 632.9139999999996 696.2990000000003 630.7289999999997 696.4940000000003 636.7229999999997 C 696.7260000000002 643.8529999999997 690.2200000000003 640.4229999999998 686.9540000000003 640.4629999999997 C 662.0150000000003 640.7709999999997 637.0690000000003 640.7599999999998 612.1300000000003 640.4579999999997 C 606.2620000000003 640.3869999999997 603.8510000000003 641.4519999999998 604.1320000000003 648.1089999999997 C 604.7280000000003 662.2179999999997 604.2970000000003 676.3699999999997 604.3100000000003 690.5039999999997 C 604.3130000000003 693.7959999999997 603.7960000000003 697.2109999999997 606.2310000000003 700.0199999999996 L 606.2310000000003 700.0199999999996 C 612.5670000000003 710.0809999999997 620.5750000000004 718.8399999999997 629.1070000000003 726.9229999999997 C 635.6850000000003 733.1549999999996 639.5670000000003 739.2189999999997 635.1140000000003 748.6319999999996 C 620.5360000000003 734.4979999999996 606.4130000000002 719.9469999999997 594.7300000000002 703.1809999999996 L 594.7300000000002 703.1809999999996 L 594.7320000000002 703.1789999999996 C 594.7320000000002 703.1789999999996 594.7330000000002 703.1789999999996 594.7330000000002 703.1799999999996 C 594.7330000000002 703.1799999999996 594.7330000000002 703.1789999999996 594.7330000000002 703.1789999999996 L 594.7330000000002 703.1789999999996 C 594.7330000000002 703.1789999999996 594.7320000000002 703.1789999999996 594.7320000000002 703.1789999999996 C 594.2330000000002 701.9279999999997 593.7340000000002 700.6739999999996 593.2350000000002 699.4209999999996 C 593.5320000000003 698.8559999999995 593.3920000000003 698.4379999999996 592.8160000000003 698.1649999999996 C 592.8410000000002 606.1209999999996 592.8650000000002 514.0739999999996 592.8900000000002 422.0279999999996 C 600.0330000000002 403.6389999999996 607.7640000000002 398.4659999999996 628.0640000000002 398.46699999999964 C 691.0850000000002 398.4679999999996 754.1060000000002 398.4509999999996 817.1270000000002 398.46999999999963 C 837.4050000000002 398.4759999999996 849.0010000000002 410.0109999999996 849.0180000000001 430.19599999999963 C 849.0520000000001 469.61899999999963 849.0230000000001 509.04199999999963 849.0560000000002 548.4649999999997 C 849.055 551.783 849.331 555.099 849.481 558.416 C 852.061 558.364 854.459 557.7120000000001 856.779 556.8000000000001 C 854.459 557.712 852.061 558.364 849.481 558.416 z" stroke-linecap="round" />
</g>
</svg>