<?xml version="1.0" encoding="UTF-8" standalone="no" ?>
<!DOCTYPE svg PUBLIC "-//W3C//DTD SVG 1.1//EN" "http://www.w3.org/Graphics/SVG/1.1/DTD/svg11.dtd">
<svg xmlns="http://www.w3.org/2000/svg" xmlns:xlink="http://www.w3.org/1999/xlink" version="1.1" width="1080" height="1080" viewBox="0 0 1080 1080" xml:space="preserve">
<desc>Created with Fabric.js 4.2.0</desc>
<defs>
</defs>
<g transform="matrix(1 0 0 1 540 540)" id="bd467b89-d3af-48d1-a62c-31a7b3aeba4e"  >
<rect style="stroke: none; stroke-width: 1; stroke-dasharray: none; stroke-linecap: butt; stroke-dashoffset: 0; stroke-linejoin: miter; stroke-miterlimit: 4; fill: rgb(255,255,255); fill-rule: nonzero; opacity: 1;" vector-effect="non-scaling-stroke"  x="-540" y="-540" rx="0" ry="0" width="1080" height="1080" />
</g>
<g transform="matrix(1 0 0 1 540 540)" id="347425ff-bd69-4da3-8aad-33af6e42cf9e"  >
</g>
<g transform="matrix(0.8 0 0 0.8 540 540)"  >
<g style="" vector-effect="non-scaling-stroke"   >
		<g transform="matrix(1 0 0 1 -101.05 -155.8)"  >
<polygon style="stroke: none; stroke-width: 1; stroke-dasharray: none; stroke-linecap: butt; stroke-dashoffset: 0; stroke-linejoin: miter; stroke-miterlimit: 4; fill: rgb(219,138,222); fill-rule: nonzero; opacity: 1;" vector-effect="non-scaling-stroke"  points="-15.24,23.2 -10.55,27.87 -6.01,23.06 29.27,-14.36 33.68,-19.04 24.33,-27.87 19.92,-23.19 -10.83,9.43 -20.05,0.2 -24.6,-4.34 -33.68,4.75 -29.14,9.3 " />
</g>
		<g transform="matrix(1 0 0 1 -101.05 46.31)"  >
<polygon style="stroke: none; stroke-width: 1; stroke-dasharray: none; stroke-linecap: butt; stroke-dashoffset: 0; stroke-linejoin: miter; stroke-miterlimit: 4; fill: rgb(219,138,222); fill-rule: nonzero; opacity: 1;" vector-effect="non-scaling-stroke"  points="-15.24,23.2 -10.55,27.87 -6.01,23.06 29.27,-14.37 33.68,-19.05 24.33,-27.87 19.92,-23.19 -10.83,9.42 -20.05,0.2 -24.6,-4.34 -33.68,4.74 -29.14,9.29 " />
</g>
		<g transform="matrix(1 0 0 1 -101.05 164.2)"  >
<polygon style="stroke: none; stroke-width: 1; stroke-dasharray: none; stroke-linecap: butt; stroke-dashoffset: 0; stroke-linejoin: miter; stroke-miterlimit: 4; fill: rgb(219,138,222); fill-rule: nonzero; opacity: 1;" vector-effect="non-scaling-stroke"  points="-15.24,23.2 -10.55,27.87 -6.01,23.06 29.27,-14.36 33.68,-19.04 24.33,-27.87 19.92,-23.19 -10.83,9.43 -20.05,0.2 -24.6,-4.34 -33.68,4.75 -29.14,9.3 " />
</g>
		<g transform="matrix(1 0 0 1 50.53 -172.64)"  >
<rect style="stroke: none; stroke-width: 1; stroke-dasharray: none; stroke-linecap: butt; stroke-dashoffset: 0; stroke-linejoin: miter; stroke-miterlimit: 4; fill: rgb(219,138,222); fill-rule: nonzero; opacity: 1;" vector-effect="non-scaling-stroke"  x="-84.209" y="-4.209" rx="0" ry="0" width="168.418" height="8.418" />
</g>
		<g transform="matrix(1 0 0 1 -16.84 -138.95)"  >
<rect style="stroke: none; stroke-width: 1; stroke-dasharray: none; stroke-linecap: butt; stroke-dashoffset: 0; stroke-linejoin: miter; stroke-miterlimit: 4; fill: rgb(219,138,222); fill-rule: nonzero; opacity: 1;" vector-effect="non-scaling-stroke"  x="-16.841" y="-4.209" rx="0" ry="0" width="33.682" height="8.418" />
</g>
		<g transform="matrix(1 0 0 1 50.53 -71.58)"  >
<rect style="stroke: none; stroke-width: 1; stroke-dasharray: none; stroke-linecap: butt; stroke-dashoffset: 0; stroke-linejoin: miter; stroke-miterlimit: 4; fill: rgb(219,138,222); fill-rule: nonzero; opacity: 1;" vector-effect="non-scaling-stroke"  x="-84.209" y="-4.209" rx="0" ry="0" width="168.418" height="8.418" />
</g>
		<g transform="matrix(1 0 0 1 33.69 -37.9)"  >
<rect style="stroke: none; stroke-width: 1; stroke-dasharray: none; stroke-linecap: butt; stroke-dashoffset: 0; stroke-linejoin: miter; stroke-miterlimit: 4; fill: rgb(219,138,222); fill-rule: nonzero; opacity: 1;" vector-effect="non-scaling-stroke"  x="-67.368" y="-4.209" rx="0" ry="0" width="134.736" height="8.418" />
</g>
		<g transform="matrix(1 0 0 1 50.53 29.47)"  >
<rect style="stroke: none; stroke-width: 1; stroke-dasharray: none; stroke-linecap: butt; stroke-dashoffset: 0; stroke-linejoin: miter; stroke-miterlimit: 4; fill: rgb(219,138,222); fill-rule: nonzero; opacity: 1;" vector-effect="non-scaling-stroke"  x="-84.209" y="-4.209" rx="0" ry="0" width="168.418" height="8.418" />
</g>
		<g transform="matrix(1 0 0 1 0 63.15)"  >
<rect style="stroke: none; stroke-width: 1; stroke-dasharray: none; stroke-linecap: butt; stroke-dashoffset: 0; stroke-linejoin: miter; stroke-miterlimit: 4; fill: rgb(219,138,222); fill-rule: nonzero; opacity: 1;" vector-effect="non-scaling-stroke"  x="-33.6865" y="-4.209" rx="0" ry="0" width="67.373" height="8.418" />
</g>
		<g transform="matrix(1 0 0 1 50.53 130.53)"  >
<rect style="stroke: none; stroke-width: 1; stroke-dasharray: none; stroke-linecap: butt; stroke-dashoffset: 0; stroke-linejoin: miter; stroke-miterlimit: 4; fill: rgb(219,138,222); fill-rule: nonzero; opacity: 1;" vector-effect="non-scaling-stroke"  x="-84.209" y="-4.209" rx="0" ry="0" width="168.418" height="8.418" />
</g>
		<g transform="matrix(1 0 0 1 33.69 164.21)"  >
<rect style="stroke: none; stroke-width: 1; stroke-dasharray: none; stroke-linecap: butt; stroke-dashoffset: 0; stroke-linejoin: miter; stroke-miterlimit: 4; fill: rgb(219,138,222); fill-rule: nonzero; opacity: 1;" vector-effect="non-scaling-stroke"  x="-67.368" y="-4.209" rx="0" ry="0" width="134.736" height="8.418" />
</g>
		<g transform="matrix(1 0 0 1 50.53 197.89)"  >
<rect style="stroke: none; stroke-width: 1; stroke-dasharray: none; stroke-linecap: butt; stroke-dashoffset: 0; stroke-linejoin: miter; stroke-miterlimit: 4; fill: rgb(219,138,222); fill-rule: nonzero; opacity: 1;" vector-effect="non-scaling-stroke"  x="-84.209" y="-4.209" rx="0" ry="0" width="168.418" height="8.418" />
</g>
		<g transform="matrix(1 0 0 1 -101.05 -54.74)"  >
<polygon style="stroke: none; stroke-width: 1; stroke-dasharray: none; stroke-linecap: butt; stroke-dashoffset: 0; stroke-linejoin: miter; stroke-miterlimit: 4; fill: rgb(219,138,222); fill-rule: nonzero; opacity: 1;" vector-effect="non-scaling-stroke"  points="16.42,-26.36 0,-9.01 -16.41,-26.36 -25.26,-18.02 -8.39,-0.14 -25.26,17.7 -16.6,26.36 0,8.76 16.6,26.36 25.26,17.7 8.4,-0.14 25.26,-18.02 " />
</g>
		<g transform="matrix(1 0 0 1 0 -344.96)"  >
<circle style="stroke: none; stroke-width: 1; stroke-dasharray: none; stroke-linecap: butt; stroke-dashoffset: 0; stroke-linejoin: miter; stroke-miterlimit: 4; fill: rgb(219,138,222); fill-rule: nonzero; opacity: 1;" vector-effect="non-scaling-stroke"  cx="0" cy="0" r="16.845" />
</g>
		<g transform="matrix(1 0 0 1 0 0)"  >
<path style="stroke: none; stroke-width: 1; stroke-dasharray: none; stroke-linecap: butt; stroke-dashoffset: 0; stroke-linejoin: miter; stroke-miterlimit: 4; fill: rgb(219,138,222); fill-rule: nonzero; opacity: 1;" vector-effect="non-scaling-stroke"  transform=" translate(-500, -500)" d="M 761.055 158.945 L 637.655 158.945 L 636.055 155.45399999999998 C 634.6819999999999 152.445 631.6909999999999 150.527 628.391 150.527 L 558.2729999999999 150.527 C 554.1089999999999 150.527 550.5909999999999 147.482 549.9999999999999 143.363 C 546.545 118.845 525.473 100 500 100 C 474.527 100 453.455 118.845 449.98199999999997 143.364 C 449.39099999999996 147.482 445.873 150.528 441.70899999999995 150.528 L 369.87299999999993 150.528 C 366.50899999999996 150.528 363.47299999999996 152.528 362.14599999999996 155.60999999999999 L 360.71 158.95499999999998 L 238.945 158.95499999999998 C 234.29999999999998 158.95499999999998 230.527 162.72799999999998 230.527 167.373 L 230.527 891.5819999999999 C 230.527 896.2269999999999 234.29999999999998 899.9999999999999 238.945 899.9999999999999 L 761.0540000000001 899.9999999999999 C 765.6990000000001 899.9999999999999 769.4720000000001 896.2269999999999 769.4720000000001 891.5819999999999 L 769.4720000000001 167.373 C 769.473 162.718 765.7 158.945 761.055 158.945 z M 375.4 167.373 L 441.70899999999995 167.373 C 454.17299999999994 167.373 464.8999999999999 158.064 466.65399999999994 145.72799999999998 C 468.98999999999995 129.255 483.32699999999994 116.84599999999998 499.9989999999999 116.84599999999998 C 516.6709999999998 116.84599999999998 531.0079999999999 129.25499999999997 533.3439999999999 145.72799999999998 C 535.0989999999999 158.064 545.8169999999999 167.373 558.289 167.373 L 622.989 167.373 L 642.216 209.482 L 357.2 209.482 L 375.4 167.373 z M 655.318 226.318 L 702.1089999999999 226.318 L 702.1089999999999 832.636 L 297.891 832.636 L 297.891 226.318 L 344.391 226.318 L 655.318 226.318 z M 752.627 883.155 L 247.373 883.155 L 247.373 175.791 L 353.418 175.791 L 338.854 209.473 L 297.89 209.473 L 281.054 209.473 L 281.054 226.318 L 281.054 832.636 L 281.054 849.481 L 297.9 849.481 L 702.1089999999999 849.481 L 718.954 849.481 L 718.954 832.636 L 718.954 226.318 L 718.954 209.473 L 702.1089999999999 209.473 L 660.7359999999999 209.473 L 645.3539999999999 175.791 L 752.636 175.791 L 752.636 883.155 L 752.627 883.155 z" stroke-linecap="round" />
</g>
</g>
</g>
</svg>