<?xml version="1.0" encoding="UTF-8" standalone="no" ?>
<!DOCTYPE svg PUBLIC "-//W3C//DTD SVG 1.1//EN" "http://www.w3.org/Graphics/SVG/1.1/DTD/svg11.dtd">
<svg xmlns="http://www.w3.org/2000/svg" xmlns:xlink="http://www.w3.org/1999/xlink" version="1.1" width="1080" height="1080" viewBox="0 0 1080 1080" xml:space="preserve">
<desc>Created with Fabric.js 4.2.0</desc>
<defs>
</defs>
<g transform="matrix(1 0 0 1 540 540)" id="61978858-9ec6-4c8d-8626-4c018b2082a2"  >
<rect style="stroke: none; stroke-width: 1; stroke-dasharray: none; stroke-linecap: butt; stroke-dashoffset: 0; stroke-linejoin: miter; stroke-miterlimit: 4; fill: rgb(255,255,255); fill-rule: nonzero; opacity: 1;" vector-effect="non-scaling-stroke"  x="-540" y="-540" rx="0" ry="0" width="1080" height="1080" />
</g>
<g transform="matrix(1 0 0 1 540 540)" id="60cc1304-09ce-4620-8aaa-4b9598977b03"  >
</g>
<g transform="matrix(0.21 0 0 0.21 540 540)"  >
<g style="" vector-effect="non-scaling-stroke"   >
		<g transform="matrix(1 0 0 1 -666.78 0)"  >
<path style="stroke: none; stroke-width: 1; stroke-dasharray: none; stroke-linecap: butt; stroke-dashoffset: 0; stroke-linejoin: miter; stroke-miterlimit: 4; fill: rgb(219,138,222); fill-rule: nonzero; opacity: 1;" vector-effect="non-scaling-stroke"  transform=" translate(982, -499.99)" d="M -665.723 386.875 C -729.8209999999999 386.59 -793.922 386.683 -858.021 386.829 C -884.5129999999999 386.889 -900.9269999999999 403.732 -900.93 430.197 C -900.939 516.496 -900.761 602.796 -901.137 689.0930000000001 C -901.1949999999999 702.3330000000001 -896.6869999999999 712.6880000000001 -887.751 721.734 C -879.3879999999999 733.4250000000001 -869.3829999999999 743.734 -858.8679999999999 753.347 C -849.6199999999999 761.802 -842.92 770.43 -845.6289999999999 783.749 C -845.9139999999999 785.148 -844.8629999999999 786.818 -844.4329999999999 788.363 C -844.0589999999999 793.59 -840.2129999999999 795.201 -836.0079999999999 795.768 C -829.6639999999999 796.625 -825.935 792.7710000000001 -823.4669999999999 786.929 C -812.3859999999999 795.9449999999999 -801.3289999999998 803.639 -786.5459999999998 801.682 C -783.8559999999998 801.326 -782.0289999999998 802.557 -782.7039999999998 805.379 C -783.3639999999998 808.136 -780.2739999999999 812.261 -785.4339999999999 813.518 C -788.0249999999999 814.149 -790.9789999999998 813.9110000000001 -792.7879999999999 816.489 C -798.5559999999999 820.003 -800.1439999999999 825.1790000000001 -798.3639999999999 831.4150000000001 C -796.6689999999999 837.3520000000001 -792.6289999999999 840.4630000000001 -786.3699999999999 841.1850000000001 C -779.7229999999998 841.9520000000001 -770.6099999999999 837.619 -767.0409999999999 843.5440000000001 C -763.986 848.6150000000001 -766.424 856.9940000000001 -766.4229999999999 863.9090000000001 C -766.4229999999999 864.1810000000002 -766.3229999999999 864.4530000000001 -766.2689999999999 864.7300000000001 C -766.7249999999999 867.4220000000001 -767.3069999999999 870.1050000000001 -767.6179999999999 872.8190000000002 C -770.4699999999999 897.7040000000002 -778.651 906.6380000000001 -803.1049999999999 910.6630000000002 C -822.2259999999999 913.8100000000003 -841.6549999999999 913.2630000000003 -860.906 914.9210000000003 C -886.3019999999999 914.4560000000002 -911.718 914.4620000000003 -937.0899999999999 913.4050000000003 C -968.2119999999999 912.1090000000003 -999.5629999999999 914.1110000000003 -1030.366 907.6100000000004 C -1030.382 907.6660000000004 -1030.392 907.7220000000003 -1030.407 907.7780000000004 C -1031.149 907.5000000000003 -1031.8909999999998 907.2230000000004 -1032.635 906.9450000000004 C -1037.386 905.0810000000004 -1042.181 903.3200000000004 -1046.863 901.2990000000004 C -1048.584 900.5560000000004 -1051.3790000000001 899.8870000000004 -1049.1870000000001 896.8740000000005 C -1037.794 893.7810000000005 -1028.16 887.4980000000005 -1019.3500000000001 879.9410000000005 C -1003.3280000000001 866.1990000000005 -994.2270000000001 849.5050000000005 -998.0130000000001 827.6220000000005 C -1000.7770000000002 806.7310000000006 -1012.0140000000001 792.7890000000006 -1029.3210000000001 788.7770000000005 C -1040.152 786.4850000000005 -1050.1930000000002 788.9820000000005 -1059.726 794.0230000000005 C -1086.0620000000001 807.9500000000005 -1099.576 836.9990000000005 -1093.6750000000002 866.7910000000005 C -1093.7510000000002 870.7600000000006 -1092.4550000000002 874.4470000000005 -1091.035 878.0280000000005 C -1088.711 883.8900000000004 -1091.134 884.4010000000005 -1096.222 883.5350000000004 C -1106.816 881.7320000000004 -1116.061 876.8210000000004 -1125.298 871.7880000000005 C -1126.358 870.8950000000004 -1127.418 870.0020000000005 -1128.479 869.1110000000004 C -1128.4850000000001 869.1470000000004 -1128.481 869.1690000000004 -1128.487 869.2040000000004 C -1129.064 868.7540000000004 -1129.641 868.3040000000004 -1130.218 867.8550000000004 C -1130.2160000000001 867.8550000000004 -1130.2150000000001 867.8550000000004 -1130.213 867.8550000000004 C -1130.952 867.1640000000003 -1131.691 866.4730000000004 -1132.432 865.7800000000003 C -1132.417 865.9490000000003 -1132.395 866.1110000000003 -1132.365 866.2640000000004 C -1132.395 866.1110000000003 -1132.417 865.9490000000003 -1132.432 865.7800000000003 C -1132.482 865.1180000000003 -1132.8410000000001 864.7780000000004 -1133.507 864.7610000000003 C -1134.288 863.1010000000003 -1135.4550000000002 861.8400000000003 -1137.183 861.1610000000003 C -1137.645 860.5950000000003 -1138.107 860.0280000000002 -1138.568 859.4640000000003 C -1138.526 859.4700000000003 -1138.49 859.4810000000003 -1138.448 859.4860000000003 C -1140.366 856.8700000000003 -1142.284 854.2550000000003 -1144.202 851.6400000000003 C -1146.318 847.6280000000004 -1148.435 843.6160000000003 -1150.552 839.6050000000004 C -1150.551 839.6040000000004 -1150.509 839.5980000000004 -1150.509 839.5980000000004 C -1154.29 827.3940000000005 -1157.536 815.1070000000004 -1157.532 802.1730000000005 C -1157.5059999999999 717.7690000000005 -1157.489 633.3640000000005 -1157.54 548.9600000000005 C -1157.5629999999999 511.4870000000005 -1157.753 474.01400000000046 -1157.867 436.54300000000046 C -1157.752 430.9990000000005 -1157.548 425.45900000000046 -1157.541 419.91800000000046 C -1157.521 405.39000000000044 -1157.556 405.39000000000044 -1143.1609999999998 404.91100000000046 C -1134.677 404.6290000000005 -1129.6159999999998 400.38200000000046 -1128.8539999999998 392.90400000000045 C -1128.014 384.65400000000045 -1131.8629999999998 379.63200000000046 -1140.485 377.4270000000005 C -1142.242 376.97800000000046 -1144.423 377.8760000000005 -1145.741 375.78600000000046 C -1148.069 372.0930000000005 -1145.407 360.58400000000046 -1141.453 358.08400000000046 C -1122.218 345.92600000000044 -1103.4769999999999 333.05700000000047 -1085.775 318.7490000000005 C -1055.2620000000002 294.08600000000047 -1026.709 267.5350000000005 -1006.9070000000002 233.0490000000005 C -989.5120000000002 202.75600000000048 -982.7290000000002 171.11300000000048 -997.4670000000001 137.7170000000005 C -1004.445 121.9070000000005 -1014.0310000000001 107.78700000000049 -1029.1180000000002 98.2910000000005 C -1035.6560000000002 89.4800000000005 -1044.9900000000002 84.60800000000049 -1054.6380000000001 80.1820000000005 C -1058.4510000000002 82.4130000000005 -1062.265 84.6440000000005 -1066.0790000000002 86.8760000000005 C -1053.2210000000002 92.9740000000005 -1041.7500000000002 101.1430000000005 -1030.9850000000001 110.3660000000005 C -1030.7310000000002 109.1170000000005 -1030.806 107.8180000000005 -1030.9180000000001 106.5130000000005 C -1030.805 107.81800000000051 -1030.73 109.1180000000005 -1030.9840000000002 110.3660000000005 C -1019.5830000000002 123.31100000000049 -1008.8190000000002 136.6300000000005 -1004.3730000000002 153.8500000000005 C -997.7910000000002 179.34100000000052 -1003.9460000000001 202.7700000000005 -1016.2220000000002 225.0250000000005 C -1033.6940000000002 256.7010000000005 -1059.217 281.3500000000005 -1086.7180000000003 304.1020000000005 C -1105.0800000000004 319.2940000000005 -1124.6770000000004 332.8150000000005 -1144.9740000000004 345.9750000000005 C -1148.0030000000004 338.2340000000005 -1145.1630000000005 334.0300000000005 -1139.1420000000003 329.8880000000005 C -1107.3240000000003 308.00200000000046 -1077.5480000000002 283.64400000000046 -1052.1870000000004 254.3370000000005 C -1038.7600000000004 238.8210000000005 -1026.7240000000004 222.2990000000005 -1019.5250000000003 202.7640000000005 C -1010.3820000000003 177.9530000000005 -1010.2530000000003 153.67200000000048 -1026.7600000000002 131.9350000000005 C -1044.3000000000002 108.8380000000005 -1065.7920000000001 91.43000000000052 -1097.255 93.24000000000052 C -1112.681 94.12700000000052 -1126.1100000000001 100.29100000000052 -1137.815 110.29500000000053 C -1138.3300000000002 110.72500000000053 -1138.845 111.15600000000053 -1139.3600000000001 111.58600000000052 C -1139.3600000000001 111.58500000000052 -1139.3600000000001 111.58500000000052 -1139.3600000000001 111.58400000000053 C -1139.3600000000001 111.58400000000053 -1139.3600000000001 111.58400000000053 -1139.3600000000001 111.58400000000053 L -1139.3600000000001 111.58400000000053 L -1139.3600000000001 111.58400000000053 C -1150.4840000000002 118.41400000000053 -1157.8870000000002 129.08700000000053 -1166.6650000000002 138.42100000000053 C -1169.7580000000003 135.36100000000053 -1172.65 132.50100000000054 -1175.5410000000002 129.64100000000053 L -1175.5410000000002 129.64000000000053 L -1175.5410000000002 129.64000000000053 L -1175.5410000000002 129.64000000000053 C -1175.5390000000002 129.6490000000005 -1175.5380000000002 129.65900000000053 -1175.536 129.66800000000052 C -1176.057 129.11700000000053 -1176.577 128.5650000000005 -1177.097 128.01400000000052 C -1177.081 128.0120000000005 -1177.068 128.01300000000052 -1177.051 128.01000000000053 C -1177.051 128.01000000000053 -1177.051 128.01000000000053 -1177.051 128.01000000000053 C -1177.051 128.01000000000053 -1177.05 128.01000000000053 -1177.05 128.01000000000053 L -1177.051 128.00900000000053 C -1177.607 126.30300000000052 -1178.741 125.16900000000052 -1180.412 124.56800000000052 C -1181.036 122.89700000000052 -1182.1960000000001 121.77800000000052 -1183.9080000000001 121.22900000000053 C -1183.91 121.24900000000052 -1183.909 121.26500000000053 -1183.911 121.28400000000053 C -1184.4940000000001 120.72900000000053 -1185.077 120.17500000000054 -1185.659 119.62100000000054 C -1185.6570000000002 119.63200000000053 -1185.652 119.63900000000054 -1185.65 119.65000000000053 C -1186.2450000000001 119.12300000000053 -1186.8400000000001 118.59600000000053 -1187.4350000000002 118.06900000000053 L -1187.247 118.25500000000054 C -1187.838 117.69500000000053 -1188.428 117.13500000000053 -1189.019 116.57600000000053 C -1189.008 116.57600000000053 -1188.997 116.57700000000054 -1188.986 116.57700000000054 L -1188.986 116.57700000000054 C -1188.986 116.57700000000054 -1188.986 116.57700000000054 -1188.986 116.57700000000054 L -1188.988 116.57600000000053 C -1191.911 113.28900000000053 -1195.111 110.36900000000054 -1199.3210000000001 108.79000000000053 C -1199.7310000000002 108.45500000000054 -1200.199 108.31700000000053 -1200.7250000000001 108.37700000000054 C -1201.284 107.77900000000054 -1201.842 107.18100000000054 -1202.401 106.58300000000054 C -1202.394 106.58300000000054 -1202.3880000000001 106.58400000000054 -1202.381 106.58400000000054 C -1202.381 106.58400000000054 -1202.382 106.58400000000054 -1202.382 106.58300000000054 C -1202.382 106.58300000000054 -1202.381 106.58300000000054 -1202.381 106.58300000000054 L -1202.4470000000001 106.53400000000053 C -1202.441 106.54100000000054 -1202.4350000000002 106.54700000000054 -1202.429 106.55300000000054 C -1203.486 105.88000000000054 -1204.544 105.20600000000054 -1205.601 104.53200000000054 C -1228.7350000000001 89.60300000000053 -1252.707 87.07000000000053 -1276.7640000000001 101.51200000000054 C -1295.6940000000002 112.87600000000054 -1310.7630000000001 128.00900000000053 -1316.362 150.47000000000054 C -1316.362 150.47200000000055 -1316.362 150.47400000000053 -1316.361 150.47500000000053 C -1317.9 151.70800000000054 -1317.785 153.39200000000054 -1317.621 155.08900000000054 C -1317.9080000000001 156.00400000000053 -1318.1950000000002 156.91800000000055 -1318.4820000000002 157.83300000000054 C -1316.034 159.55400000000054 -1315.6160000000002 161.74900000000054 -1315.688 164.03400000000053 C -1315.6160000000002 161.74900000000054 -1316.034 159.55500000000052 -1318.4820000000002 157.83500000000052 C -1320.2970000000003 168.72400000000053 -1320.217 179.50400000000053 -1316.6540000000002 190.08500000000052 C -1314.2470000000003 201.61500000000052 -1309.7300000000002 212.22900000000053 -1302.8720000000003 221.8270000000005 C -1302.7330000000004 222.6420000000005 -1302.8350000000003 223.6160000000005 -1302.4190000000003 224.2500000000005 C -1284.1800000000003 252.07300000000052 -1261.7550000000003 276.0570000000005 -1235.7650000000003 296.7590000000005 C -1222.8350000000003 308.94300000000055 -1208.6470000000004 319.58100000000053 -1193.8660000000004 329.31300000000056 C -1187.0640000000005 333.79200000000054 -1185.8250000000005 338.86800000000056 -1188.0330000000004 346.5430000000006 C -1209.1730000000005 333.5760000000006 -1227.7640000000004 317.89700000000056 -1247.0290000000005 303.14700000000056 C -1248.3620000000005 304.0980000000006 -1250.0510000000004 304.59400000000056 -1251.6030000000005 305.2660000000006 C -1252.0460000000005 305.4580000000006 -1252.4780000000005 305.6640000000006 -1252.8870000000006 305.9000000000006 C -1252.4780000000005 305.6650000000006 -1252.0460000000007 305.4580000000006 -1251.6030000000005 305.2660000000006 C -1250.0510000000006 304.59400000000056 -1248.3620000000005 304.0980000000006 -1247.0290000000005 303.14700000000056 C -1254.8900000000006 295.92300000000057 -1262.7500000000005 288.6990000000006 -1270.6110000000006 281.47500000000053 C -1270.6110000000006 281.47500000000053 -1270.6110000000006 281.47500000000053 -1270.6110000000006 281.47500000000053 L -1270.6110000000006 281.47400000000056 C -1270.6230000000005 281.4970000000006 -1270.6290000000006 281.52300000000054 -1270.6410000000005 281.54600000000056 C -1270.6410000000005 281.54600000000056 -1270.6410000000005 281.54600000000056 -1270.6410000000005 281.54600000000056 C -1271.9420000000005 284.09200000000055 -1270.1810000000005 287.5910000000006 -1270.9980000000005 290.28700000000055 C -1271.1480000000006 290.78200000000055 -1271.3850000000004 291.25000000000057 -1271.7440000000006 291.67900000000054 C -1271.3850000000007 291.24900000000054 -1271.1480000000006 290.78200000000055 -1270.9980000000005 290.28700000000055 C -1270.1810000000005 287.59000000000054 -1271.9420000000005 284.0910000000005 -1270.6410000000005 281.5450000000005 C -1271.2430000000006 280.91200000000055 -1271.8450000000005 280.28000000000054 -1272.4460000000006 279.6470000000005 C -1282.8850000000007 267.5090000000005 -1293.3240000000005 255.3710000000005 -1303.7630000000006 243.23300000000052 L -1303.7630000000006 243.23300000000052 C -1304.3030000000006 242.49500000000052 -1304.8430000000005 241.7560000000005 -1305.3830000000005 241.0170000000005 L -1305.2810000000004 240.84000000000052 C -1308.5710000000004 235.6610000000005 -1311.8610000000003 230.48300000000052 -1315.1500000000003 225.3040000000005 C -1315.1500000000003 225.3040000000005 -1315.1500000000003 225.3030000000005 -1315.1500000000003 225.3030000000005 C -1321.5820000000003 212.9460000000005 -1326.6790000000003 200.0640000000005 -1330.3640000000003 186.62700000000052 L -1330.3640000000003 186.62700000000052 C -1330.7960000000003 182.65100000000052 -1331.2270000000003 178.67500000000052 -1331.6590000000003 174.69900000000052 L -1331.6590000000003 174.69900000000052 C -1331.6590000000003 174.70300000000051 -1331.4110000000003 174.17700000000053 -1331.4110000000003 174.17700000000053 L -1331.7520000000002 173.70600000000053 C -1331.7590000000002 172.49800000000053 -1331.766 171.29000000000053 -1331.7730000000001 170.08200000000053 C -1331.3680000000002 153.80200000000053 -1326.6000000000001 138.83800000000053 -1318.16 124.98200000000054 C -1319.5910000000001 122.19800000000053 -1321.6660000000002 121.60300000000053 -1323.905 121.56700000000053 C -1321.665 121.60300000000053 -1319.59 122.19700000000053 -1318.1589999999999 124.98100000000053 C -1307.2579999999998 109.92600000000053 -1293.6889999999999 97.84800000000054 -1277.578 88.61000000000053 C -1248.8999999999999 76.08100000000053 -1222.099 80.95900000000053 -1196.6019999999999 97.43700000000052 C -1187.706 103.18500000000053 -1179.4309999999998 109.80600000000052 -1172.349 117.65600000000052 C -1168.462 121.96400000000051 -1166.379 121.19800000000052 -1162.7649999999999 117.32400000000052 C -1145.9859999999999 99.34000000000052 -1126.4209999999998 86.18300000000053 -1101.3169999999998 82.70500000000052 C -1089.1119999999999 81.01400000000052 -1077.6509999999998 84.02900000000052 -1066.0789999999997 86.86800000000052 C -1062.2639999999997 84.63700000000053 -1058.4499999999998 82.40600000000052 -1054.6369999999997 80.17500000000052 C -1068.6259999999997 72.39800000000052 -1083.6989999999996 69.73300000000052 -1099.5059999999996 70.93600000000052 C -1124.1149999999996 72.81000000000051 -1144.5109999999997 83.98700000000052 -1162.3039999999996 100.32900000000052 C -1166.3719999999996 104.06500000000052 -1168.7509999999995 104.54200000000051 -1173.0799999999997 100.57000000000052 C -1186.8749999999998 87.91300000000052 -1202.6019999999996 78.20600000000051 -1220.8669999999997 73.42000000000053 C -1245.4589999999998 66.97500000000053 -1268.9889999999998 69.09100000000053 -1290.6519999999998 83.50500000000054 C -1306.8749999999998 92.84600000000053 -1319.9699999999998 105.34000000000054 -1329.2029999999997 121.73000000000053 C -1338.3259999999998 134.78400000000053 -1342.9269999999997 149.26000000000053 -1342.8749999999998 165.19900000000052 L -1342.8749999999998 165.19900000000052 C -1343.7499999999998 167.3330000000005 -1343.6369999999997 169.48600000000053 -1342.9899999999998 171.64800000000054 C -1343.9419999999998 174.69000000000054 -1343.4809999999998 177.66200000000055 -1342.5489999999998 180.62200000000053 C -1342.7509999999997 183.90700000000052 -1342.7779999999998 187.17200000000054 -1340.8699999999997 190.09500000000054 C -1338.5109999999997 206.59200000000055 -1331.6279999999997 221.23900000000054 -1322.5239999999997 234.97800000000055 C -1322.0979999999997 237.03800000000055 -1321.1179999999997 238.73600000000056 -1319.3199999999997 239.90700000000055 C -1307.3879999999997 260.3000000000005 -1291.4519999999998 277.32200000000057 -1274.2989999999998 293.3170000000006 C -1268.6119999999999 299.40700000000055 -1262.4669999999996 304.9940000000006 -1255.8539999999998 310.0640000000006 C -1254.6529999999998 311.2030000000006 -1253.5049999999999 312.40400000000056 -1252.245 313.4730000000006 C -1233.1809999999998 329.6430000000006 -1213.4219999999998 344.9370000000006 -1192.2289999999998 358.18800000000056 C -1185.5029999999997 362.3940000000006 -1187.3639999999998 367.98000000000053 -1187.1999999999998 373.48400000000055 C -1187.0349999999999 379.0670000000006 -1192.0499999999997 376.77500000000055 -1194.6649999999997 377.73900000000054 C -1200.8729999999998 380.02700000000056 -1204.2659999999998 383.9590000000006 -1204.4069999999997 390.64700000000056 C -1204.6169999999997 400.6050000000006 -1199.2389999999998 405.44000000000057 -1186.5099999999998 404.71300000000053 C -1178.2899999999997 404.2430000000005 -1175.9539999999997 406.29000000000053 -1175.9949999999997 414.92900000000054 C -1176.0249999999996 421.14200000000056 -1176.0349999999996 427.35500000000053 -1176.0589999999997 433.56800000000055 C -1176.0679999999998 433.88500000000056 -1176.0709999999997 434.20200000000057 -1176.0619999999997 434.5190000000006 C -1176.3489999999997 508.7780000000006 -1176.2739999999997 583.0390000000006 -1176.2159999999997 657.3000000000006 C -1176.1789999999996 705.0330000000006 -1175.9589999999996 752.7660000000006 -1175.8209999999997 800.5000000000007 C -1175.9289999999996 817.4140000000007 -1172.4239999999998 833.5020000000006 -1164.8059999999996 848.6480000000007 L -1164.7899999999995 848.6250000000007 C -1164.5649999999996 850.4170000000007 -1164.1369999999995 852.1100000000007 -1162.5489999999995 853.2400000000007 C -1162.5489999999995 853.2400000000007 -1162.5049999999994 853.3490000000007 -1162.5049999999994 853.3490000000007 C -1162.1249999999993 853.9960000000008 -1161.7439999999995 854.6430000000007 -1161.3639999999994 855.2900000000008 C -1161.3949999999993 855.2760000000007 -1161.4189999999994 855.2570000000007 -1161.4509999999993 855.2430000000007 C -1160.7899999999993 857.7430000000007 -1159.6899999999994 859.9720000000008 -1157.5569999999993 861.5670000000007 C -1157.5569999999993 861.5660000000007 -1157.4899999999993 861.6940000000006 -1157.4899999999993 861.6940000000006 C -1157.2699999999993 863.4490000000006 -1156.2539999999992 864.6110000000007 -1154.8099999999993 865.4550000000006 C -1154.4889999999994 866.7540000000006 -1153.9039999999993 867.8510000000006 -1152.5459999999994 868.3600000000006 C -1150.1099999999994 872.5920000000006 -1146.7059999999994 875.8750000000006 -1142.6059999999993 878.4740000000006 C -1142.6069999999993 878.4700000000006 -1142.6089999999992 878.4660000000006 -1142.6099999999992 878.4620000000007 C -1142.0529999999992 878.9770000000007 -1141.4959999999992 879.4920000000006 -1140.9379999999992 880.0080000000007 C -1140.941999999999 880.0080000000007 -1140.9439999999993 880.0080000000007 -1140.9479999999992 880.0080000000007 C -1138.8529999999992 882.6310000000008 -1136.2819999999992 884.5950000000007 -1133.105999999999 885.7200000000007 C -1130.898999999999 887.4030000000007 -1129.5459999999991 890.5410000000007 -1125.964999999999 889.8840000000007 C -1112.599999999999 898.6750000000008 -1097.235999999999 900.8800000000007 -1081.902999999999 902.9310000000007 C -1078.154999999999 903.4320000000007 -1075.125999999999 904.3460000000007 -1072.2159999999992 906.8440000000007 C -1060.7799999999993 916.6560000000007 -1047.3389999999993 922.1800000000007 -1032.556999999999 924.6230000000007 C -1023.7049999999991 927.1130000000007 -1014.6139999999991 927.9860000000008 -1005.4839999999991 928.4840000000007 C -958.1109999999991 931.0690000000008 -910.6959999999991 929.5480000000007 -863.2999999999992 929.9040000000007 C -840.3099999999991 930.0760000000007 -817.3239999999992 929.8120000000007 -794.3959999999992 927.8080000000007 C -793.1619999999991 927.7370000000006 -791.9269999999991 927.6660000000006 -790.6929999999992 927.5950000000007 C -787.7889999999992 926.9530000000007 -784.5989999999991 927.3610000000007 -782.0939999999991 925.2490000000007 C -769.9039999999991 922.5730000000007 -762.7639999999991 914.0260000000007 -757.5559999999991 903.5800000000007 C -749.5649999999991 887.5530000000007 -747.8079999999991 870.0950000000007 -748.0279999999991 852.6360000000008 C -748.1449999999991 843.4220000000007 -746.1529999999991 839.8450000000007 -736.4309999999991 840.9160000000007 C -728.5819999999991 841.7810000000007 -724.2289999999991 836.4680000000008 -722.9319999999991 829.0830000000008 C -721.7399999999991 822.2970000000008 -726.0069999999992 815.3610000000008 -733.2929999999991 814.4140000000008 C -739.9789999999991 813.5450000000008 -739.5139999999991 809.8040000000008 -739.3339999999992 805.3620000000008 C -739.0689999999992 798.8320000000008 -733.9959999999992 801.8330000000008 -731.2239999999991 801.8050000000007 C -720.3859999999992 801.6920000000007 -709.5049999999991 802.3920000000007 -700.3129999999992 794.9960000000008 C -697.8309999999992 792.9990000000008 -696.0409999999991 791.7660000000008 -692.3229999999992 794.2340000000008 C -686.3879999999992 798.1740000000009 -680.6889999999992 795.4740000000008 -677.2839999999992 788.5530000000008 C -675.5429999999992 787.0350000000008 -675.9769999999992 784.9020000000008 -676.2569999999992 783.1610000000007 C -677.4669999999992 775.6210000000008 -674.1589999999992 770.3970000000007 -669.0409999999991 765.1390000000007 C -659.8629999999991 755.7110000000007 -650.9349999999991 745.9800000000007 -643.2749999999992 735.2070000000007 C -638.0829999999992 730.5410000000006 -634.3919999999991 724.6640000000007 -630.5109999999992 718.9900000000007 C -625.9969999999992 712.3910000000006 -620.9449999999991 705.7610000000006 -620.8889999999992 697.3240000000006 C -620.7539999999992 677.1290000000006 -621.0119999999993 656.9320000000006 -621.1119999999992 636.7360000000007 C -621.1099999999992 609.4740000000006 -621.1079999999992 582.2120000000007 -621.1059999999992 554.9510000000007 C -620.9879999999991 514.1690000000007 -621.5629999999992 473.3700000000007 -620.5069999999992 432.61300000000074 C -619.801 405.285 -635.929 387.008 -665.723 386.875 z M -1031.096 104.166 C -1031.074 104.684 -1031.031 105.206 -1030.985 105.729 C -1031.032 105.206 -1031.075 104.685 -1031.096 104.166 z M -1175.203 133.089 C -1175.202 133.382 -1175.204 133.675 -1175.208 133.969 C -1175.204 133.675 -1175.202 133.382 -1175.203 133.089 z M -1174.207 289.827 C -1174.192 283.45799999999997 -1174.2740000000001 277.087 -1174.159 270.719 C -1174.2740000000001 277.086 -1174.191 283.457 -1174.199 289.827 C -1174.207 295.643 -1174.261 301.459 -1174.178 307.274 C -1174.261 301.459 -1174.207 295.643 -1174.207 289.827 z M -1183.917 121.421 C -1184.108 121.38600000000001 -1184.302 121.352 -1184.462 121.284 C -1184.301 121.352 -1184.108 121.385 -1183.917 121.421 C -1183.917 121.42 -1183.917 121.42 -1183.917 121.421 z M -1012.591 829.519 C -1012.606 830.236 -1012.665 830.952 -1012.654 831.592 C -1012.665 830.952 -1012.605 830.236 -1012.591 829.519 C -1012.566 828.324 -1012.665 827.128 -1013.418 826.288 C -1012.664 827.128 -1012.566 828.324 -1012.591 829.519 z M -1014.436 824.356 C -1014.4240000000001 824.032 -1014.448 823.721 -1014.514 823.424 C -1014.447 823.72 -1014.424 824.032 -1014.436 824.356 z M -1014.615 823.102 C -1014.64 823.034 -1014.657 822.963 -1014.688 822.8969999999999 C -1014.656 822.963 -1014.64 823.034 -1014.615 823.102 z M -1080.915 872.239 C -1080.556 872.51 -1080.1979999999999 872.784 -1079.84 873.057 C -1079.485 873.327 -1079.128 873.591 -1078.769 873.849 C -1079.129 873.591 -1079.486 873.327 -1079.84 873.057 C -1080.198 872.784 -1080.556 872.51 -1080.915 872.239 z M -1065.983 883.499 C -1067.412 882.3340000000001 -1068.84 881.169 -1070.269 880.004 C -1070.754 879.863 -1071.143 879.672 -1071.449 879.436 C -1071.144 879.671 -1070.755 879.863 -1070.271 880.003 C -1070.9279999999999 878.7610000000001 -1071.585 877.5200000000001 -1072.241 876.2800000000001 C -1072.241 876.2800000000001 -1072.136 876.2120000000001 -1072.134 876.2120000000001 C -1072.134 876.2120000000001 -1072.133 876.2120000000001 -1072.133 876.2120000000001 C -1078.9 857.8600000000001 -1076.828 840.3280000000001 -1067.243 823.4920000000001 C -1063.3719999999998 820.0350000000001 -1059.8029999999999 816.1450000000001 -1055.578 813.196 C -1038.912 801.565 -1026.189 804.419 -1015.842 821.753 C -1015.911 823.1510000000001 -1015.907 824.524 -1014.56 825.4300000000001 C -1014.56 825.4300000000001 -1014.669 825.4730000000001 -1014.669 825.4730000000001 C -1014.669 825.4730000000001 -1014.669 825.4730000000001 -1014.67 825.4730000000001 C -1013.519 851.4910000000001 -1030.122 872.0920000000001 -1059.728 881.397 C -1061.825 882.056 -1063.897 882.796 -1065.983 883.499 C -1064.837 885.107 -1062.822 884.683 -1061.373 884.8720000000001 C -1062.822 884.683 -1064.838 885.107 -1065.983 883.499 z M -892.349 694.769 C -892.4050000000001 694.546 -892.4490000000001 694.319 -892.481 694.087 C -892.448 694.319 -892.404 694.546 -892.349 694.769 z M -892.491 690.831 C -892.529 691.4440000000001 -892.568 692.065 -892.5699999999999 692.676 C -892.568 692.065 -892.529 691.444 -892.491 690.831 z M -886.573 712.221 C -886.467 712.698 -886.366 713.175 -886.281 713.651 C -886.366 713.174 -886.467 712.698 -886.573 712.221 z M -788.228 790.092 C -798.7959999999999 791.2289999999999 -805.8299999999999 784.609 -813.7629999999999 779.792 C -814.4479999999999 779.284 -815.1329999999999 778.7760000000001 -815.8179999999999 778.268 C -815.7959999999998 778.267 -815.7779999999999 778.2610000000001 -815.7559999999999 778.26 C -822.3919999999998 773.1419999999999 -826.3629999999998 766.995 -823.2529999999998 757.655 C -815.6929999999999 762.1 -810.5709999999998 769.598 -802.8319999999998 773.574 L -802.8319999999998 773.574 L -802.8319999999998 773.574 C -802.8289999999997 773.558 -802.8259999999998 773.5409999999999 -802.8229999999998 773.525 C -802.8229999999998 773.525 -802.8229999999998 773.525 -802.8229999999998 773.525 C -802.7049999999997 772.8 -802.5499999999997 772.0609999999999 -802.3109999999998 771.372 C -802.1479999999998 770.9029999999999 -801.9469999999998 770.4559999999999 -801.6929999999998 770.054 C -801.9469999999998 770.456 -802.1479999999998 770.9019999999999 -802.3109999999998 771.372 C -802.5499999999998 772.0609999999999 -802.7049999999998 772.8 -802.8229999999998 773.525 C -802.1459999999997 774.069 -801.4689999999997 774.614 -800.7919999999998 775.158 C -797.4459999999998 779.187 -792.9799999999998 780.029 -788.0859999999998 779.585 C -784.5329999999998 779.2620000000001 -782.4799999999998 779.989 -782.4779999999998 784.404 C -782.476 788.825 -784.038 789.642 -788.228 790.092 z M -718.116 789.812 C -723.636 790.245 -729.229 789.6850000000001 -734.764 790.0020000000001 C -739.471 790.272 -739.246 787.4820000000001 -739.383 784.2120000000001 C -739.5350000000001 780.5830000000001 -738.2130000000001 778.8840000000001 -734.615 779.5330000000001 C -719.3820000000001 782.2800000000001 -708.437 775.1500000000001 -698.523 762.6280000000002 C -696.616 777.799 -705.085 788.79 -718.116 789.812 z M -680.627 754.609 C -680.155 753.898 -679.756 753.154 -679.396 752.393 C -679.756 753.154 -680.154 753.898 -680.627 754.609 z M -678.455 750.066 C -677.2040000000001 746.3910000000001 -676.7520000000001 742.351 -675.981 738.4110000000001 C -675.981 738.4110000000001 -675.981 738.4110000000001 -675.981 738.4110000000001 C -676.752 742.351 -677.204 746.391 -678.455 750.066 z M -632.519 558.416 C -633.165 583.4000000000001 -633.27 608.384 -632.471 633.3670000000001 C -632.638 652.3860000000001 -633.037 671.407 -632.851 690.422 C -632.783 697.3960000000001 -634.747 703.2810000000001 -638.343 709.058 C -645.943 721.265 -656.111 731.479 -664.3789999999999 743.155 C -667.7989999999999 746.654 -671.2189999999999 750.153 -675.9789999999999 755.023 C -675.9789999999999 748.4630000000001 -675.9789999999999 743.437 -675.9789999999999 738.4110000000001 C -665.2669999999999 727.591 -656.1179999999999 715.5110000000001 -647.3689999999999 703.096 C -642.2459999999999 695.826 -644.0959999999999 687.761 -644.387 679.85 L -644.387 679.85 C -644.387 642.148 -644.386 604.445 -644.386 566.741 C -644.2439999999999 525.99 -644.101 485.239 -643.962 444.489 C -643.944 439.21999999999997 -643.888 433.95099999999996 -643.959 428.683 C -644.13 416.019 -650.762 409.188 -663.4789999999999 409.089 C -683.7209999999999 408.932 -703.9659999999999 409.054 -724.2099999999999 409.058 C -768.5799999999999 409.068 -812.949 409.027 -857.319 409.122 C -869.982 409.149 -876.485 414.50300000000004 -877.328 425.00600000000003 C -876.121 429.17400000000004 -875.741 433.37600000000003 -875.696 437.591 C -875.741 433.37600000000003 -876.1220000000001 429.175 -877.328 425.007 C -877.3399999999999 446.745 -877.352 468.483 -877.3639999999999 490.22 C -877.478 511.543 -877.535 532.866 -877.7579999999999 554.187 C -877.7979999999999 558.027 -876.6349999999999 559.667 -872.5479999999999 559.551 C -860.1109999999999 559.1980000000001 -847.6659999999999 559.1370000000001 -835.2239999999999 558.962 C -837.304 557.874 -837.5809999999999 556.096 -837.6089999999999 554.1179999999999 C -837.5809999999999 556.0959999999999 -837.3029999999999 557.8749999999999 -835.2159999999999 558.962 C -819.8619999999999 559.723 -804.5159999999998 559.975 -789.1719999999999 558.877 C -782.0729999999999 562.178 -784.694 565.4739999999999 -789.1769999999999 568.769 C -789.7399999999999 577.324 -790.3029999999999 585.879 -790.877 594.611 C -790.303 585.879 -789.7389999999999 577.324 -789.1769999999999 568.7669999999999 C -804.2269999999999 565.958 -819.3549999999999 567.6529999999999 -834.4599999999999 567.972 C -847.184 567.8 -859.911 567.741 -872.6299999999999 567.391 C -876.7489999999999 567.2779999999999 -877.5949999999999 569.01 -877.8049999999998 572.7779999999999 C -879.1099999999998 596.1209999999999 -879.1989999999998 596.0949999999999 -855.7059999999998 596.1159999999999 C -834.3649999999998 596.1349999999999 -813.0239999999998 596.1799999999998 -791.6829999999998 596.2869999999999 C -788.9019999999998 596.3009999999999 -785.1289999999998 595.0239999999999 -785.2079999999997 600.1289999999999 C -785.2879999999998 605.2669999999999 -789.1089999999997 603.7529999999999 -791.8449999999997 603.7909999999999 C -817.0299999999996 604.136 -842.2309999999997 603.1099999999999 -867.4019999999997 604.685 C -864.7399999999997 609.8599999999999 -859.9879999999997 612.126 -855.2079999999997 614.2679999999999 C -859.9889999999997 612.1259999999999 -864.7409999999998 609.8599999999999 -867.4039999999998 604.685 C -877.6969999999998 603.212 -877.7009999999998 603.212 -877.7119999999998 613.0469999999999 C -877.7179999999997 618.036 -877.6909999999998 623.026 -877.7089999999997 628.0149999999999 C -877.7179999999997 630.6499999999999 -877.5229999999997 633.4799999999999 -874.0859999999997 633.3189999999998 C -867.2639999999997 632.9999999999999 -860.3319999999997 634.6549999999999 -853.6179999999997 632.2899999999998 L -852.9579999999997 632.5029999999998 C -852.9579999999997 632.5029999999998 -852.4709999999998 632.0579999999998 -852.4629999999997 632.0569999999998 C -851.4089999999998 632.0049999999998 -850.3469999999998 631.9519999999998 -849.2849999999997 631.8999999999997 C -838.8199999999997 633.3809999999997 -828.2989999999998 632.3929999999998 -817.8059999999997 632.5889999999997 C -810.3259999999997 632.7289999999997 -802.8269999999997 632.3459999999997 -795.3639999999997 632.7289999999997 C -791.7469999999997 632.9139999999996 -785.7009999999997 630.7289999999997 -785.5059999999997 636.7229999999997 C -785.2739999999998 643.8529999999997 -791.7799999999997 640.4229999999998 -795.0459999999997 640.4629999999997 C -819.9849999999997 640.7709999999997 -844.9309999999997 640.7599999999998 -869.8699999999997 640.4579999999997 C -875.7379999999997 640.3869999999997 -878.1489999999997 641.4519999999998 -877.8679999999997 648.1089999999997 C -877.2719999999997 662.2179999999997 -877.7029999999997 676.3699999999997 -877.6899999999997 690.5039999999997 C -877.6869999999997 693.7959999999997 -878.2039999999997 697.2109999999997 -875.7689999999997 700.0199999999996 L -875.7689999999997 700.0199999999996 C -869.4329999999997 710.0809999999997 -861.4249999999996 718.8399999999997 -852.8929999999997 726.9229999999997 C -846.3149999999997 733.1549999999996 -842.4329999999997 739.2189999999997 -846.8859999999997 748.6319999999996 C -861.4639999999997 734.4979999999996 -875.5869999999998 719.9469999999997 -887.2699999999998 703.1809999999996 L -887.2699999999998 703.1809999999996 L -887.2679999999998 703.1789999999996 C -887.2679999999998 703.1789999999996 -887.2669999999998 703.1789999999996 -887.2669999999998 703.1799999999996 C -887.2669999999998 703.1799999999996 -887.2669999999998 703.1789999999996 -887.2669999999998 703.1789999999996 L -887.2669999999998 703.1789999999996 C -887.2669999999998 703.1789999999996 -887.2679999999998 703.1789999999996 -887.2679999999998 703.1789999999996 C -887.7669999999998 701.9279999999997 -888.2659999999998 700.6739999999996 -888.7649999999998 699.4209999999996 C -888.4679999999997 698.8559999999995 -888.6079999999997 698.4379999999996 -889.1839999999997 698.1649999999996 C -889.1589999999998 606.1209999999996 -889.1349999999998 514.0739999999996 -889.1099999999998 422.0279999999996 C -881.9669999999998 403.6389999999996 -874.2359999999998 398.4659999999996 -853.9359999999998 398.46699999999964 C -790.9149999999998 398.4679999999996 -727.8939999999998 398.4509999999996 -664.8729999999998 398.46999999999963 C -644.5949999999998 398.4759999999996 -632.9989999999998 410.0109999999996 -632.9819999999999 430.19599999999963 C -632.9479999999999 469.61899999999963 -632.9769999999999 509.04199999999963 -632.9439999999998 548.4649999999997 C -632.945 551.783 -632.669 555.099 -632.519 558.416 C -629.939 558.364 -627.541 557.7120000000001 -625.221 556.8000000000001 C -627.541 557.712 -629.939 558.364 -632.519 558.416 z" stroke-linecap="round" />
</g>
		<g transform="matrix(1 0 0 1 815.22 0.01)"  >
<path style="stroke: none; stroke-width: 1; stroke-dasharray: none; stroke-linecap: butt; stroke-dashoffset: 0; stroke-linejoin: miter; stroke-miterlimit: 4; fill: rgb(219,138,222); fill-rule: nonzero; opacity: 1;" vector-effect="non-scaling-stroke"  transform=" translate(-500, -500)" d="M 417.988 308.446 L 362.436 308.446 C 357.594 308.446 353.66499999999996 312.37600000000003 353.66499999999996 317.21700000000004 C 353.66499999999996 322.059 357.59499999999997 325.98800000000006 362.436 325.98800000000006 L 417.988 325.98800000000006 C 422.83 325.98800000000006 426.759 322.05800000000005 426.759 317.21700000000004 C 426.76 312.376 422.83 308.446 417.988 308.446 z M 417.988 367.705 L 362.436 367.705 C 357.594 367.705 353.66499999999996 371.635 353.66499999999996 376.476 C 353.66499999999996 381.318 357.59499999999997 385.247 362.436 385.247 L 417.988 385.247 C 422.83 385.247 426.759 381.317 426.759 376.476 C 426.76 371.635 422.83 367.705 417.988 367.705 z M 417.988 249.188 L 362.436 249.188 C 357.594 249.188 353.66499999999996 253.118 353.66499999999996 257.959 C 353.66499999999996 262.801 357.59499999999997 266.73 362.436 266.73 L 417.988 266.73 C 422.83 266.73 426.759 262.8 426.759 257.959 C 426.76 253.117 422.83 249.188 417.988 249.188 z M 652.206 218.383 C 637.868 202.758 617.472 193.8 596.268 193.8 C 591.426 193.8 587.4970000000001 197.73000000000002 587.4970000000001 202.57100000000003 C 587.4970000000001 207.41300000000004 591.427 211.34200000000004 596.268 211.34200000000004 C 612.5830000000001 211.34200000000004 628.254 218.23000000000005 639.294 230.25300000000004 C 642.838 234.10100000000006 645.855 238.40400000000005 648.241 243.07100000000005 C 652.51 251.36300000000006 654.673 260.345 654.673 269.72400000000005 C 654.673 274.56600000000003 658.603 278.49500000000006 663.444 278.49500000000006 C 668.286 278.49500000000006 672.2149999999999 274.56500000000005 672.2149999999999 269.72400000000005 C 672.2149999999999 257.69000000000005 669.3259999999999 245.69100000000003 663.8409999999999 235.04800000000006 C 660.72 229.002 656.802 223.4 652.206 218.383 z M 663.433 294.81 C 658.591 294.81 654.662 298.74 654.662 303.581 L 654.662 344.9 C 654.662 349.74199999999996 658.592 353.671 663.433 353.671 C 668.274 353.671 672.204 349.741 672.204 344.9 L 672.204 303.58099999999996 C 672.204 298.74 668.275 294.81 663.433 294.81 z M 500.018 127.769 C 482.417 127.769 468.102 142.095 468.102 159.685 C 468.102 177.298 482.428 191.613 500.018 191.613 C 517.608 191.613 531.934 177.287 531.934 159.685 C 531.933 142.096 517.619 127.769 500.018 127.769 z M 500.018 174.07 C 492.089 174.07 485.645 167.60299999999998 485.645 159.685 C 485.645 151.767 492.101 145.312 500.018 145.312 C 507.936 145.312 514.391 151.756 514.391 159.685 C 514.391 167.614 507.947 174.07 500.018 174.07 z M 604.864 150.914 L 570.621 150.902 C 566.2819999999999 115.80499999999998 536.273 88.54399999999998 500.03 88.54399999999998 C 463.75199999999995 88.54399999999998 433.74199999999996 115.80499999999998 429.40299999999996 150.914 L 395.16 150.914 C 335.48 150.914 286.934 199.45999999999998 286.934 259.14 L 286.934 597.046 C 286.934 654.9830000000001 332.732 702.2900000000001 390.00300000000004 705.003 L 410.99600000000004 740.451 C 412.58700000000005 743.129 415.44000000000005 744.755 418.55100000000004 744.755 L 474.43000000000006 744.755 C 476.21900000000005 784.249 489.22400000000005 817.954 493.4580000000001 827.837 C 499.92500000000007 842.924 510.33400000000006 873.097 511.7960000000001 911.457 L 529.4790000000002 911.457 C 528.0170000000002 869.893 516.5790000000002 837.252 509.5860000000001 820.925 C 501.6920000000001 802.5169999999999 493.3180000000001 773.6419999999999 491.84500000000014 744.7429999999999 L 509.4110000000001 744.7429999999999 C 510.8730000000001 770.987 518.5100000000001 797.1949999999999 525.7140000000002 814.001 C 533.2460000000002 831.579 545.5600000000002 866.769 547.0220000000002 911.456 L 564.4130000000001 911.456 C 562.9160000000002 863.693 549.8880000000001 825.895 541.8300000000002 807.101 C 535.3160000000001 791.897 528.4510000000001 768.343 527.0010000000002 744.743 L 581.4530000000002 744.743 C 584.5520000000002 744.743 587.4290000000002 743.1060000000001 589.0080000000002 740.4390000000001 L 610.0010000000002 704.9910000000001 C 667.2720000000002 702.2780000000001 713.0700000000002 654.9710000000001 713.0700000000002 597.0340000000001 L 713.0700000000002 259.14 C 713.09 199.472 664.532 150.914 604.864 150.914 z M 362.437 622.284 C 357.595 622.284 353.666 618.354 353.666 613.513 C 353.666 608.671 357.596 604.7420000000001 362.437 604.7420000000001 L 417.98900000000003 604.7420000000001 C 422.831 604.7420000000001 426.76000000000005 608.672 426.76000000000005 613.513 C 426.76000000000005 618.355 422.83000000000004 622.284 417.98900000000003 622.284 L 362.437 622.284 z M 362.437 486.223 L 417.98900000000003 486.223 C 422.831 486.223 426.76000000000005 490.153 426.76000000000005 494.994 C 426.76000000000005 499.836 422.83000000000004 503.76500000000004 417.98900000000003 503.76500000000004 L 362.437 503.76500000000004 C 357.595 503.76500000000004 353.666 499.83500000000004 353.666 494.994 C 353.665 490.153 357.595 486.223 362.437 486.223 z M 353.665 435.736 C 353.665 430.894 357.595 426.965 362.43600000000004 426.965 L 417.98800000000006 426.965 C 422.83000000000004 426.965 426.75900000000007 430.895 426.75900000000007 435.736 C 426.75900000000007 440.578 422.82900000000006 444.507 417.98800000000006 444.507 L 362.43600000000004 444.507 C 357.595 444.507 353.665 440.577 353.665 435.736 z M 362.437 545.482 L 417.98900000000003 545.482 C 422.831 545.482 426.76000000000005 549.4119999999999 426.76000000000005 554.2529999999999 C 426.76000000000005 559.0939999999999 422.83000000000004 563.0239999999999 417.98900000000003 563.0239999999999 L 362.437 563.0239999999999 C 357.595 563.0239999999999 353.666 559.0939999999999 353.666 554.2529999999999 C 353.666 549.4119999999999 357.595 545.482 362.437 545.482 z M 576.468 727.224 L 423.555 727.224 L 410.562 705.272 L 589.485 705.272 L 576.468 727.224 z M 695.548 404.872 L 304.476 404.872 L 304.476 259.14 C 304.476 209.14399999999998 345.163 168.456 395.15999999999997 168.456 L 437.63699999999994 168.444 C 442.4789999999999 168.444 446.40799999999996 164.51399999999998 446.40799999999996 159.673 C 446.40799999999996 130.131 470.465 106.086 500.03 106.086 C 529.572 106.086 553.617 130.131 553.617 159.685 C 553.617 164.52700000000002 557.5469999999999 168.45600000000002 562.3879999999999 168.45600000000002 L 604.8649999999999 168.45600000000002 C 654.8609999999999 168.45600000000002 695.5489999999999 209.14300000000003 695.5489999999999 259.14 L 695.5489999999999 404.872 z" stroke-linecap="round" />
</g>
</g>
</g>
</svg>