<?xml version="1.0" encoding="UTF-8" standalone="no" ?>
<!DOCTYPE svg PUBLIC "-//W3C//DTD SVG 1.1//EN" "http://www.w3.org/Graphics/SVG/1.1/DTD/svg11.dtd">
<svg xmlns="http://www.w3.org/2000/svg" xmlns:xlink="http://www.w3.org/1999/xlink" version="1.1" width="1080" height="1080" viewBox="0 0 1080 1080" xml:space="preserve">
<desc>Created with Fabric.js 4.2.0</desc>
<defs>
</defs>
<g transform="matrix(1 0 0 1 540 540)" id="63aad27a-015a-42c5-a132-452dc9877d77"  >
<rect style="stroke: none; stroke-width: 1; stroke-dasharray: none; stroke-linecap: butt; stroke-dashoffset: 0; stroke-linejoin: miter; stroke-miterlimit: 4; fill: rgb(255,255,255); fill-rule: nonzero; opacity: 1;" vector-effect="non-scaling-stroke"  x="-540" y="-540" rx="0" ry="0" width="1080" height="1080" />
</g>
<g transform="matrix(1 0 0 1 540 540)" id="73925e19-5ce4-4b69-810d-7715fbeae054"  >
</g>
<g transform="matrix(0.53 0 0 0.53 540 540)"  >
<g style="" vector-effect="non-scaling-stroke"   >
		<g transform="matrix(1 0 0 1 0 207.6)"  >
<path style="stroke: none; stroke-width: 1; stroke-dasharray: none; stroke-linecap: butt; stroke-dashoffset: 0; stroke-linejoin: miter; stroke-miterlimit: 4; fill: rgb(219,138,222); fill-rule: nonzero; opacity: 1;" vector-effect="non-scaling-stroke"  transform=" translate(-500, -707.6)" d="M 734.482 771.588 C 751.661 806.072 768.828 840.562 786.026 875.0369999999999 C 790.3349999999999 883.674 793.991 892.1279999999999 788.733 901.939 C 778.606 920.8349999999999 755.9309999999999 922.3059999999999 743.448 904.903 C 730.398 886.708 723.266 865.551 713.6949999999999 845.671 C 700.5229999999999 818.312 682.6299999999999 793.345 673.0699999999999 764.1410000000001 C 670.01 754.7930000000001 665.0379999999999 750.1210000000001 652.313 753.4480000000001 C 596.211 768.1150000000001 541.4449999999999 786.9670000000001 486.091 803.9650000000001 C 479.092 806.1140000000001 471.543 807.3670000000002 464.244 807.3860000000002 C 457.276 807.4040000000002 456.11 810.0570000000002 456.31800000000004 816.1380000000001 C 456.72800000000007 828.0730000000001 456.177 840.0390000000001 456.523 851.9770000000001 C 456.69300000000004 857.844 454.79 859.7780000000001 448.81100000000004 859.724 C 418.814 859.452 388.809 859.32 358.81600000000003 859.759 C 351.26500000000004 859.869 351.18600000000004 856.212 351.206 850.743 C 351.319 819.8380000000001 350.892 788.9250000000001 351.475 758.0310000000001 C 351.629 749.845 349.15900000000005 745.4100000000001 342.089 741.576 C 325.882 732.788 310 723.373 294.276 713.738 C 286.65700000000004 709.07 282.52500000000003 711.3370000000001 279 718.681 C 266.912 743.861 255.855 769.6500000000001 242.052 793.865 C 221.91899999999998 829.188 208.27599999999998 867.763 186.406 902.126 C 177.09900000000002 916.75 163.94 921.161 151.02100000000002 913.941 C 137.26500000000001 906.2520000000001 133.20600000000002 892.332 141.483 877.073 C 165.34 833.093 185.377 787.192 209.525 743.331 C 219.167 725.819 226.262 706.798 236.142 689.297 C 239.882 682.673 237.621 679.799 231.873 677.1410000000001 C 196.019 660.5580000000001 165.26799999999997 634.94 128.923 619.1060000000001 C 119.99600000000001 615.2170000000001 112.02600000000001 608.9420000000001 103.992 603.2340000000002 C 91.674 594.4830000000002 88.763 580.4420000000001 96.30000000000001 568.5950000000001 C 104.21700000000001 556.1510000000002 118.37700000000001 552.7200000000001 131.63500000000002 560.0560000000002 C 163.91500000000002 577.9180000000001 195.27900000000002 597.4900000000001 227.54100000000003 615.2050000000002 C 265.619 636.1130000000002 301.558 660.6480000000001 340.555 679.9440000000002 C 356.47 687.8190000000002 370.058 700.0990000000002 387.262 707.3890000000002 C 387.382 701.1970000000002 383.777 695.9150000000002 386.13 691.0620000000002 C 389.507 684.1010000000002 384.843 682.5470000000003 380.34 680.4370000000002 C 357.118 669.5520000000002 335.32599999999996 656.2300000000002 316.20599999999996 639.1890000000002 C 296.53399999999993 621.6560000000002 273.02799999999996 607.1100000000002 265.20199999999994 579.3590000000002 C 260.52399999999994 562.7740000000001 258.8809999999999 545.6170000000002 265.62199999999996 529.7940000000001 C 279.88199999999995 496.3220000000001 322.01899999999995 488.1400000000001 353.352 510.0660000000001 C 384.91999999999996 532.157 417.71 552.5090000000001 450.109 573.397 C 454 575.9050000000001 458.79999999999995 577.0020000000001 466.548 580.1 C 454.466 580.7810000000001 446.992 579.2470000000001 438.902 575.727 C 419.34999999999997 567.2189999999999 399.09 560.3249999999999 379.01599999999996 553.052 C 376.965 552.309 374.24699999999996 553.408 371.83899999999994 553.652 C 362.25999999999993 546.649 352.93499999999995 539.2620000000001 343.0469999999999 532.7280000000001 C 325.7059999999999 521.2690000000001 301.8399999999999 524.0400000000001 291.7499999999999 538.167 C 279.91199999999986 554.741 283.2839999999999 572.8330000000001 300.6599999999999 585.974 C 322.6079999999999 606.7320000000001 348.3159999999999 621.2900000000001 376.2899999999999 632.254 C 396.0839999999999 640.0120000000001 416.2419999999999 646.128 437.5259999999999 648.004 C 439.7359999999999 648.1990000000001 442.7739999999999 650.573 443.66899999999987 647.046 C 444.5169999999999 643.705 441.53299999999984 642.71 438.63399999999984 641.474 C 432.13599999999985 638.7040000000001 421.44799999999987 642.7460000000001 419.40699999999987 634.739 C 418.0069999999999 629.246 423.72499999999985 621.991 426.1109999999999 615.4680000000001 C 429.63599999999985 605.83 430.4799999999999 593.364 437.16899999999987 587.2330000000001 C 444.2879999999999 580.7080000000001 456.5149999999999 587.72 466.45499999999987 588.488 C 494.6919999999999 590.671 520.3759999999999 579.7170000000001 547.2069999999999 574.8290000000001 C 548.3149999999998 574.6270000000001 548.9549999999999 572.4860000000001 550.0569999999999 571.5300000000001 C 561.5719999999999 561.537 576.9469999999999 561.9090000000001 587.5909999999999 572.3740000000001 C 598.9009999999998 583.4930000000002 599.4169999999999 597.3470000000001 589.4259999999999 609.7390000000001 C 587.1479999999999 612.5640000000002 580.9459999999999 613.9710000000001 584.5629999999999 619.7950000000002 L 584.9009999999998 619.4900000000002 C 577.2829999999998 616.6830000000002 570.9029999999998 621.3340000000003 564.9199999999998 624.0850000000003 C 530.9039999999999 639.7290000000003 495.4279999999998 646.6020000000003 458.11499999999984 644.0650000000003 C 447.9189999999998 643.3720000000003 445.69899999999984 647.2210000000002 449.5819999999998 656.5930000000003 C 454.60499999999985 668.7190000000003 452.3949999999998 672.7370000000003 439.0289999999998 674.7690000000003 C 428.5009999999998 676.3690000000004 417.65599999999984 675.8070000000004 407.0799999999998 677.1850000000004 C 400.6659999999998 678.0210000000004 390.1779999999998 677.4450000000004 397.8279999999998 689.7170000000004 C 398.7609999999998 691.2130000000004 396.8839999999998 694.2150000000005 397.0959999999998 696.4450000000004 C 398.9339999999998 715.7930000000003 415.6359999999998 730.4480000000004 435.8689999999998 730.6520000000004 C 439.98799999999983 730.6930000000004 444.1569999999998 731.1160000000004 448.2159999999998 730.6320000000004 C 454.73599999999976 729.8550000000004 456.56499999999977 732.2060000000004 456.5639999999998 738.7710000000004 C 456.5619999999998 752.8200000000004 462.2119999999998 756.5990000000004 476.0489999999998 752.2690000000005 C 512.4019999999998 740.8930000000005 548.2979999999998 727.8070000000005 585.1139999999998 718.2380000000005 C 614.4989999999998 710.6000000000005 643.2809999999998 701.0040000000005 672.6829999999998 693.5180000000005 C 680.3159999999998 691.5740000000005 686.4879999999997 694.3960000000005 692.7749999999997 696.8500000000005 C 740.5189999999998 715.4800000000005 788.9209999999997 732.4000000000004 836.0839999999997 752.5650000000005 C 853.7909999999997 760.1360000000005 872.4439999999997 765.4620000000006 890.4279999999998 772.4260000000005 C 905.7799999999997 778.3710000000005 911.4199999999997 792.7080000000005 905.5499999999997 808.6550000000005 C 900.8259999999997 821.4900000000006 886.8819999999997 826.9750000000006 871.5799999999997 821.1440000000006 C 826.4959999999996 803.9630000000005 781.5409999999997 786.4450000000006 736.5339999999997 769.0620000000006 C 735.4729999999996 768.9770000000005 734.4119999999997 768.8900000000006 733.3509999999997 768.8030000000006 C 733.729 769.73 734.106 770.659 734.482 771.588 z M 440.868 785.674 C 440.987 802.523 440.775 819.384 441.382 836.2149999999999 C 441.641 843.3919999999999 439.153 845.2919999999999 432.332 845.083 C 418.024 844.645 403.693 844.928 389.372 845.02 C 387.515 845.0319999999999 385.00600000000003 844.8009999999999 384.925 847.765 C 384.843 850.7189999999999 387.011 850.536 389.094 850.523 C 406.391 850.416 423.68899999999996 850.3620000000001 440.986 850.258 C 444.06 850.24 446.74399999999997 849.717 446.609 845.61 C 445.953 825.572 448.01099999999997 805.495 445.734 785.48 C 445.99699999999996 773.595 446.015 761.6990000000001 446.621 749.832 C 446.947 743.4399999999999 444.793 741.273 438.279 741.365 C 414.863 741.696 391.436 741.748 368.022 741.346 C 361.377 741.232 359.55 743.446 359.646 749.737 C 359.94800000000004 769.454 359.797 789.1769999999999 359.8 808.8979999999999 C 359.801 820.8129999999999 359.90700000000004 832.7319999999999 359.666 844.6429999999999 C 359.574 849.18 361.61 850.4839999999999 365.612 850.0129999999999 C 368.363 849.689 370.089 848.6479999999999 369.00100000000003 845.3899999999999 C 363.04100000000005 827.5399999999998 368.057 809.1629999999999 366.41600000000005 791.1129999999998 C 365.78600000000006 784.1749999999998 370.4200000000001 785.5099999999999 374.31100000000004 785.5159999999998 C 396.497 785.548 418.683 785.617 440.868 785.674 z M 373.924 849.013 C 373.638 848.495 373.34099999999995 847.9580000000001 373.044 847.4200000000001 C 372.769 847.695 372.22499999999997 848.0290000000001 372.27099999999996 848.2330000000001 C 372.40099999999995 848.815 372.77 849.3430000000001 373.044 849.893 C 373.318 849.618 373.593 849.343 373.924 849.013 z" stroke-linecap="round" />
</g>
		<g transform="matrix(1 0 0 1 167.33 -83.16)"  >
<path style="stroke: none; stroke-width: 1; stroke-dasharray: none; stroke-linecap: butt; stroke-dashoffset: 0; stroke-linejoin: miter; stroke-miterlimit: 4; fill: rgb(219,138,222); fill-rule: nonzero; opacity: 1;" vector-effect="non-scaling-stroke"  transform=" translate(-667.33, -416.84)" d="M 722.653 449.152 C 716.953 435.37399999999997 717.36 420.537 715.475 406.132 C 714.2660000000001 396.891 712.72 392.259 700.8140000000001 393.548 C 672.565 396.608 644.522 401.067 616.316 404.249 C 609.15 405.057 608.448 407.90200000000004 609.287 413.672 C 611.889 431.57000000000005 614.27 449.50100000000003 616.9340000000001 468.858 C 602.123 461.12 594.066 447.527 580.7560000000001 435.425 C 582.0350000000001 445.17400000000004 585.5970000000001 450.111 589.907 454.986 C 604.5490000000001 471.549 622.9490000000001 483.039 641.452 494.59999999999997 C 659.267 505.731 659.239 525.727 641.995 534.961 C 634.808 538.8100000000001 628.246 537.179 620.849 534.362 C 596.533 525.101 580.13 505.83399999999995 561.142 489.626 C 539.5580000000001 471.203 529.479 446.82099999999997 524.234 420.50899999999996 C 518.236 390.41499999999996 528.171 363.179 548.159 340.924 C 567.834 319.01599999999996 590.918 301.12199999999996 621.953 297.46999999999997 C 625.975 296.99699999999996 629.399 295.94199999999995 633.773 297.30699999999996 C 653.313 303.40399999999994 673.6510000000001 306.383 693.282 299.78 C 716.289 292.042 736.6700000000001 298.76 755.278 309.85299999999995 C 779.869 324.51399999999995 801.34 343.4 809.285 372.80699999999996 C 818.18 405.73299999999995 805.31 433.02299999999997 786.298 458.736 C 770.135 480.59499999999997 749.154 496.791 726.519 511.138 C 717.878 516.615 706.247 513.386 699.47 504.09 C 692.381 494.366 693.7130000000001 482.48699999999997 703.282 474.296 C 710.914 467.763 720.566 463.462 725.39 453.89099999999996 C 760.425 432.143 777.383 394.47399999999993 757.15 371.03499999999997 C 766.114 396.015 756.867 414.69899999999996 741.571 431.90099999999995 C 735.829 438.356 727.342 441.649 722.653 449.152 z M 579.575 378.126 C 563.109 398.92499999999995 564.995 428.39799999999997 584.9200000000001 439.926 C 574.209 418.553 571.38 398.637 579.575 378.126 z" stroke-linecap="round" />
</g>
		<g transform="matrix(1 0 0 1 148.11 150.67)"  >
<path style="stroke: none; stroke-width: 1; stroke-dasharray: none; stroke-linecap: butt; stroke-dashoffset: 0; stroke-linejoin: miter; stroke-miterlimit: 4; fill: rgb(219,138,222); fill-rule: nonzero; opacity: 1;" vector-effect="non-scaling-stroke"  transform=" translate(-648.11, -650.67)" d="M 584.565 619.795 C 595.0780000000001 619.704 597.4040000000001 610.8929999999999 600.5050000000001 603.793 C 602.6730000000001 598.829 604.7880000000001 596.032 610.4590000000001 594.6800000000001 C 628.7510000000001 590.3220000000001 646.8280000000001 585.066 664.9960000000001 580.1840000000001 C 673.07 578.0140000000001 681.1020000000001 577.3460000000001 689.2690000000001 580.1010000000001 C 748.3610000000001 600.0330000000001 807.6110000000001 619.5060000000001 866.5250000000001 639.9510000000001 C 889.2940000000001 647.8520000000001 900.565 670.8240000000002 894.2710000000001 692.2010000000001 C 887.6410000000001 714.7180000000002 865.5020000000001 727.5600000000002 842.057 721.6140000000001 C 801.433 711.3120000000001 762.1610000000001 696.7330000000002 722.657 682.9140000000001 C 710.255 678.575 698.023 673.5800000000002 685.366 670.1770000000001 C 666.431 665.0860000000001 649.045 673.7310000000001 631.379 678.3340000000002 C 590.1270000000001 689.0840000000002 549.098 700.6940000000002 507.829 711.3740000000001 C 486.116 716.9930000000002 464.625 714.7740000000001 443.613 706.8400000000001 C 429.54 701.5260000000002 414.886 697.7050000000002 400.214 690.2900000000002 C 409.918 685.3870000000002 419.018 686.9630000000002 427.793 686.7580000000002 C 437.02 686.5430000000001 445.919 685.3510000000001 453.726 680.1940000000002 C 460.778 675.5350000000002 465.489 668.9600000000002 462.109 660.3640000000001 C 458.592 651.4210000000002 462.53499999999997 651.1740000000001 469.637 651.3720000000002 C 506.601 652.3980000000001 541.331 643.4150000000002 574.197 626.8830000000002 C 578.007 624.9670000000001 582.997 624.3490000000002 584.9 619.4980000000002 C 584.903 619.491 584.565 619.795 584.565 619.795 z" stroke-linecap="round" />
</g>
		<g transform="matrix(1 0 0 1 -252 -85.25)"  >
<path style="stroke: none; stroke-width: 1; stroke-dasharray: none; stroke-linecap: butt; stroke-dashoffset: 0; stroke-linejoin: miter; stroke-miterlimit: 4; fill: rgb(219,138,222); fill-rule: nonzero; opacity: 1;" vector-effect="non-scaling-stroke"  transform=" translate(-248, -414.75)" d="M 170.907 414.503 C 168.64000000000001 374.03999999999996 203.61200000000002 336.96799999999996 248.323 337.97299999999996 C 297.088 339.06899999999996 325.593 368.04599999999994 325.241 415.57599999999996 C 324.90799999999996 460.59999999999997 297.60699999999997 490.24399999999997 249.16299999999998 491.51399999999995 C 201.62 492.761 168.13 452.538 170.907 414.503 z" stroke-linecap="round" />
</g>
		<g transform="matrix(1 0 0 1 168.19 -274.32)"  >
<path style="stroke: none; stroke-width: 1; stroke-dasharray: none; stroke-linecap: butt; stroke-dashoffset: 0; stroke-linejoin: miter; stroke-miterlimit: 4; fill: rgb(219,138,222); fill-rule: nonzero; opacity: 1;" vector-effect="non-scaling-stroke"  transform=" translate(-668.19, -225.68)" d="M 740.976 225.491 C 740.649 263.034 708.592 299.44100000000003 666.895 298.935 C 629.915 298.486 594.072 259.617 595.442 223.264 C 596.943 183.42600000000002 630.25 150.627 670.509 152.496 C 714.129 154.521 738.514 182.232 740.976 225.491 z" stroke-linecap="round" />
</g>
		<g transform="matrix(1 0 0 1 174.71 44.25)"  >
<path style="stroke: none; stroke-width: 1; stroke-dasharray: none; stroke-linecap: butt; stroke-dashoffset: 0; stroke-linejoin: miter; stroke-miterlimit: 4; fill: rgb(219,138,222); fill-rule: nonzero; opacity: 1;" vector-effect="non-scaling-stroke"  transform=" translate(-674.71, -544.25)" d="M 779.845 477.374 C 790.264 522.4010000000001 800.236 565.493 810.796 611.125 C 791.2080000000001 604.361 773.586 598.459 756.095 592.189 C 734.857 584.5759999999999 713.541 577.2969999999999 691.479 572.3539999999999 C 681.744 570.1729999999999 672.446 569.7829999999999 662.465 572.458 C 644.6700000000001 577.228 626.0980000000001 578.785 608.461 584.509 C 606.198 585.243 604.227 585.694 602.115 583.072 C 576.691 551.494 576.643 551.535 540.654 567.473 C 540.31 567.625 539.8389999999999 567.492 538.617 567.492 C 539.265 542.007 549.116 518.342 552.8009999999999 493.64199999999994 C 557.3589999999999 492.69899999999996 558.7499999999999 496.50899999999996 560.867 498.61999999999995 C 578.697 516.4 598.477 531.401 621.4119999999999 542.031 C 622.5239999999999 542.5459999999999 624.535 542.67 624.7359999999999 543.3729999999999 C 628.9179999999999 558.0559999999999 639.9539999999998 551.0909999999999 648.1479999999999 550.1909999999999 C 672.6379999999999 547.5009999999999 696.983 543.4959999999999 721.4649999999999 540.7119999999999 C 730.088 539.7309999999999 731.8489999999999 536.3079999999999 729.137 528.7859999999998 C 726.7149999999999 522.0709999999998 728.861 517.7749999999999 735.3499999999999 513.9109999999998 C 751.247 504.441 764.333 491.247 779.845 477.374 z" stroke-linecap="round" />
</g>
		<g transform="matrix(1 0 0 1 168.47 -356.97)"  >
<path style="stroke: none; stroke-width: 1; stroke-dasharray: none; stroke-linecap: butt; stroke-dashoffset: 0; stroke-linejoin: miter; stroke-miterlimit: 4; fill: rgb(219,138,222); fill-rule: nonzero; opacity: 1;" vector-effect="non-scaling-stroke"  transform=" translate(-668.47, -143.03)" d="M 591.398 203.41 C 584.145 176.573 577.958 152.909 569.7180000000001 129.886 C 568.619 126.814 569.2060000000001 124.374 572.0190000000001 122.399 C 605.0020000000001 99.235 638.7410000000001 78.40100000000001 681.7910000000002 83.40299999999999 C 705.7390000000001 86.18599999999999 726.2960000000002 97.04299999999999 746.2310000000002 109.53299999999999 C 771.2890000000002 125.23199999999999 771.3550000000002 125.29699999999998 762.0760000000002 153.164 C 757.0250000000002 168.33499999999998 751.6300000000002 183.392 746.3120000000002 198.47199999999998 C 746.0920000000002 199.09499999999997 745.0760000000002 199.438 743.9980000000003 200.22899999999998 C 730.6670000000003 164.904 704.7690000000002 145.262 667.4520000000002 145.801 C 631.296 146.324 606.048 165.814 591.398 203.41 z" stroke-linecap="round" />
</g>
		<g transform="matrix(1 0 0 1 -321.54 22.52)"  >
<path style="stroke: none; stroke-width: 1; stroke-dasharray: none; stroke-linecap: butt; stroke-dashoffset: 0; stroke-linejoin: miter; stroke-miterlimit: 4; fill: rgb(219,138,222); fill-rule: nonzero; opacity: 1;" vector-effect="non-scaling-stroke"  transform=" translate(-178.46, -522.52)" d="M 104.125 503.866 C 104.858 486.104 115.588 473.854 129.28 465.41999999999996 C 141.478 457.907 155.062 461.82199999999995 166.238 470.15399999999994 C 175.502 477.0609999999999 185.49099999999999 482.2219999999999 195.65 487.58399999999995 C 210.779 495.57099999999997 225.058 505.42999999999995 238.821 515.674 C 255.406 528.019 256.269 544.249 246.524 563.829 C 238.604 579.7439999999999 212.606 587.8639999999999 199.087 581.391 C 168.605 566.7959999999999 141.72899999999998 546.5899999999999 113.62299999999999 528.3349999999999 C 105.765 523.231 103.949 513.426 104.125 503.866 z" stroke-linecap="round" />
</g>
		<g transform="matrix(1 0 0 1 128.46 339.3)"  >
<path style="stroke: none; stroke-width: 1; stroke-dasharray: none; stroke-linecap: butt; stroke-dashoffset: 0; stroke-linejoin: miter; stroke-miterlimit: 4; fill: rgb(219,138,222); fill-rule: nonzero; opacity: 1;" vector-effect="non-scaling-stroke"  transform=" translate(-628.46, -839.3)" d="M 663.732 829.751 C 663.733 847.444 663.992 865.1419999999999 663.661 882.829 C 663.324 900.8639999999999 647.7669999999999 916.255 629.757 917.011 C 611.882 917.762 594.0699999999999 903.2969999999999 593.608 885.512 C 592.7529999999999 852.6189999999999 593.447 819.688 593.087 786.7779999999999 C 593.025 781.1119999999999 596.193 779.8779999999999 600.17 778.651 C 617.014 773.453 634.0889999999999 768.9029999999999 650.651 762.928 C 661.717 758.936 663.698 764.085 663.718 772.97 C 663.761 791.897 663.731 810.824 663.732 829.751 z" stroke-linecap="round" />
</g>
		<g transform="matrix(1 0 0 1 -168.2 71.44)"  >
<path style="stroke: none; stroke-width: 1; stroke-dasharray: none; stroke-linecap: butt; stroke-dashoffset: 0; stroke-linejoin: miter; stroke-miterlimit: 4; fill: rgb(219,138,222); fill-rule: nonzero; opacity: 1;" vector-effect="non-scaling-stroke"  transform=" translate(-331.8, -571.44)" d="M 371.657 560.917 C 365.96 576.712 359.83299999999997 592.3720000000001 354.77099999999996 608.369 C 352.66099999999994 615.039 349.88399999999996 611.898 346.93199999999996 610.2760000000001 C 332.22599999999994 602.1970000000001 317.633 593.927 305.13399999999996 582.5190000000001 C 302.126 577.2440000000001 295.33699999999993 575.5920000000001 293.33599999999996 568.9970000000001 C 289.54799999999994 556.5110000000001 293.55199999999996 543.628 304.78899999999993 535.2600000000001 C 313.9819999999999 528.4140000000001 326.00999999999993 528.9060000000001 336.6579999999999 536.4500000000002 C 348.273 544.68 358.362 555.093 371.657 560.917 z" stroke-linecap="round" />
</g>
		<g transform="matrix(1 0 0 1 201.72 356.69)"  >
<path style="stroke: none; stroke-width: 1; stroke-dasharray: none; stroke-linecap: butt; stroke-dashoffset: 0; stroke-linejoin: miter; stroke-miterlimit: 4; fill: rgb(219,138,222); fill-rule: nonzero; opacity: 1;" vector-effect="non-scaling-stroke"  transform=" translate(-701.72, -856.69)" d="M 674.383 796.141 C 678.374 802.353 682.029 806.702 684.231 811.692 C 696.309 839.068 715.383 863.002 723.781 892.176 C 724.1129999999999 893.331 724.9359999999999 894.35 725.5609999999999 895.4150000000001 C 733.0939999999999 908.2460000000001 729.252 914.9470000000001 713.9469999999999 916.9670000000001 C 696.2409999999999 919.3040000000001 673.3539999999999 906.2450000000001 674.1659999999999 882.0140000000001 C 675.1 854.123 674.383 826.177 674.383 796.141 z" stroke-linecap="round" />
</g>
		<g transform="matrix(1 0 0 1 234.94 270.19)"  >
<path style="stroke: none; stroke-width: 1; stroke-dasharray: none; stroke-linecap: butt; stroke-dashoffset: 0; stroke-linejoin: miter; stroke-miterlimit: 4; fill: rgb(219,138,222); fill-rule: nonzero; opacity: 1;" vector-effect="non-scaling-stroke"  transform=" translate(-734.94, -770.19)" d="M 734.482 771.588 C 734.105 770.659 733.7289999999999 769.73 733.352 768.8009999999999 C 734.413 768.8879999999999 735.4739999999999 768.9749999999999 736.535 769.06 C 735.851 769.902 735.167 770.745 734.482 771.588 z" stroke-linecap="round" />
</g>
		<g transform="matrix(1 0 0 1 -126.9 348.66)"  >
<path style="stroke: none; stroke-width: 1; stroke-dasharray: none; stroke-linecap: butt; stroke-dashoffset: 0; stroke-linejoin: miter; stroke-miterlimit: 4; fill: rgb(219,138,222); fill-rule: nonzero; opacity: 1;" vector-effect="non-scaling-stroke"  transform=" translate(-373.1, -848.66)" d="M 373.924 849.013 C 373.59299999999996 849.344 373.318 849.618 373.044 849.893 C 372.769 849.344 372.4 848.815 372.27099999999996 848.2330000000001 C 372.22599999999994 848.0300000000001 372.76899999999995 847.695 373.044 847.4200000000001 C 373.34 847.957 373.637 848.494 373.924 849.013 z" stroke-linecap="round" />
</g>
</g>
</g>
</svg>